<?xml version="1.0" encoding="UTF-8"?>
<svg width="42px" height="50px" viewBox="0 0 42 50" version="1.1" xmlns="http://www.w3.org/2000/svg" xmlns:xlink="http://www.w3.org/1999/xlink">
    <!-- Generator: Sketch 52.4 (67378) - http://www.bohemiancoding.com/sketch -->
    <title>Combined Shape</title>
    <desc>Created with Sketch.</desc>
    <defs>
        <linearGradient x1="42.526259%" y1="34.6115068%" x2="100%" y2="88.5992192%" id="linearGradient-1">
            <stop stop-color="#80C3F3" stop-opacity="0.5" offset="0%"></stop>
            <stop stop-color="#4A90E2" stop-opacity="0.5" offset="100%"></stop>
        </linearGradient>
    </defs>
    <g id="Page-1" stroke="none" stroke-width="1" fill="none" fill-rule="evenodd">
        <g id="01---Colega-Copy" transform="translate(-203.000000, -1657.000000)" fill="url(#linearGradient-1)">
            <g id="Group-14" transform="translate(0.000000, 1592.000000)">
                <g id="Group-12" transform="translate(185.000000, 46.000000)">
                    <g id="Group-2">
                        <path d="M48.7707489,33.1423173 C49.6331722,33.0608457 50.657934,33.5598592 49.6940491,36.9714819 C48.9939643,39.4563654 48.3446103,40.1590578 47.8474486,40.1997936 C47.3908716,43.1531387 45.0369632,46.9110157 41.3539084,48.2451129 C39.8218387,48.7950462 38.1375767,48.7950462 36.605507,48.2552969 C32.8615752,46.9313836 30.5888361,43.1633226 30.1322591,40.1997936 C29.6350974,40.1590578 28.9857434,39.4665493 28.2958047,36.9714819 C27.3319198,33.5598592 28.3566816,33.0608457 29.219105,33.1423173 C29.0466203,32.6636717 28.9248664,32.205394 28.8436972,31.7369324 C28.5393125,30.1380525 28.4479971,28.66138 28.8234048,27.2458111 C29.2596896,25.3515967 30.2844514,23.8240044 31.4309671,22.6528503 C32.1513442,21.8788703 32.9731829,21.1965457 33.8457524,20.6466125 C34.5559834,20.157783 35.3372374,19.7300571 36.1895146,19.4449066 C36.8591609,19.2208597 37.5693919,19.0782844 38.3202075,19.0375486 C40.6436774,18.8440536 42.4091086,19.4245387 43.6773782,20.1781509 C45.5645634,21.2270976 46.2849405,22.6121146 46.2849405,22.6121146 C46.2849405,22.6121146 50.6072032,22.917633 49.1461567,31.7369324 C49.0649874,32.205394 48.9330874,32.6738557 48.7707489,33.1423173 Z M56.0049586,51.7789431 C59.9315212,52.787154 60.1242982,57.339379 59.9619597,59.5900316 C59.9619597,59.5900316 59.7387443,62.6452161 59.5053827,63.9894973 C59.5053827,63.9894973 51.8348882,69 38.9898538,69 C26.1448195,68.9898161 18.474325,63.9894973 18.474325,63.9894973 C18.2511096,62.6452161 18.017748,59.5900316 18.0380403,59.5900316 C17.8757018,57.329195 18.0684788,52.77697 21.9950414,51.7789431 C27.2608967,50.4346619 31.5425748,47.4100292 31.5425748,47.4100292 L34.8806604,58.0115196 L35.5097221,60.0075735 L35.5198683,59.9770216 L36.0677607,61.6675571 L37.833192,56.6468705 C33.5007831,50.5772372 38.7057615,50.6383408 39,50.6485248 C39.2942385,50.6383408 44.4992169,50.5772372 40.166808,56.6468705 L41.9322393,61.6675571 L42.4801317,59.9770216 L42.4902779,60.0075735 L43.1193396,58.0115196 L46.4574252,47.4100292 C46.4574252,47.4100292 50.7391033,50.4346619 56.0049586,51.7789431 Z" id="Combined-Shape"></path>
                    </g>
                </g>
            </g>
        </g>
    </g>
</svg>