<?xml version="1.0" encoding="UTF-8"?>
<svg width="50px" height="50px" viewBox="0 0 50 50" version="1.1" xmlns="http://www.w3.org/2000/svg" xmlns:xlink="http://www.w3.org/1999/xlink">
    <!-- Generator: Sketch 52.4 (67378) - http://www.bohemiancoding.com/sketch -->
    <title>Shape</title>
    <desc>Created with Sketch.</desc>
    <defs>
        <linearGradient x1="42.526259%" y1="34.6115068%" x2="100%" y2="88.5992192%" id="linearGradient-1">
            <stop stop-color="#80C3F3" stop-opacity="0.5" offset="0%"></stop>
            <stop stop-color="#4A90E2" stop-opacity="0.5" offset="100%"></stop>
        </linearGradient>
    </defs>
    <g id="Page-1" stroke="none" stroke-width="1" fill="none" fill-rule="evenodd">
        <g id="01---Colega-Copy" transform="translate(-744.000000, -1657.000000)" fill="url(#linearGradient-1)">
            <g id="Group-14" transform="translate(0.000000, 1592.000000)">
                <g id="Group-12" transform="translate(185.000000, 46.000000)">
                    <g id="Group-5" transform="translate(545.000000, 0.000000)">
                        <path d="M25.0294342,48.7725678 C25.7412567,48.7725678 26.3207092,49.3520203 26.3207092,50.0638428 C26.3207092,50.7760468 25.7412567,51.3551178 25.0294342,51.3551178 C24.3172303,51.3551178 23.7377777,50.7760468 23.7377777,50.0638428 C23.7377777,49.3520203 24.3172303,48.7725678 25.0294342,48.7725678 Z M52.9705658,39.9781646 C52.2587433,39.9781646 51.6792908,39.3990937 51.6792908,38.6868896 C51.6792908,37.9750672 52.2587433,37.3956146 52.9705658,37.3956146 C53.6827697,37.3956146 54.2622223,37.9750672 54.2622223,38.6868896 C54.2622223,39.3990937 53.6827697,39.9781646 52.9705658,39.9781646 Z M51.5930786,47.6304474 C52.3052826,47.6304474 52.8847352,48.2095185 52.8847352,48.9217225 C52.8847352,49.6339264 52.3052826,50.2129975 51.5930786,50.2129975 C50.8812561,50.2129975 50.3018036,49.6339264 50.3018036,48.9217225 C50.3018036,48.2098999 50.8812561,47.6304474 51.5930786,47.6304474 Z M32.5710907,56.3065948 C33.2832947,56.3065948 33.8623657,56.8856659 33.8623657,57.5978699 C33.8623657,58.3096924 33.2832947,58.8891449 32.5710907,58.8891449 C31.8592682,58.8891449 31.2798156,58.3096924 31.2798156,57.5978699 C31.2798156,56.8856659 31.8592682,56.3065948 32.5710907,56.3065948 Z M46.5576782,27.0081939 C47.2695008,27.0081939 47.8485718,27.587265 47.8489532,28.2994689 C47.8489532,29.0112915 47.2695008,29.590744 46.5576782,29.590744 C45.8454742,29.590744 45.2660217,29.0112915 45.2660217,28.2994689 C45.2660217,27.587265 45.8454742,27.0081939 46.5576782,27.0081939 Z M26.4069214,40.3695526 C25.6947174,40.3695526 25.1152648,39.7901001 25.1152648,39.0782775 C25.1152648,38.3660736 25.6947174,37.7870025 26.4069214,37.7870025 C27.1187439,37.7870025 27.6981964,38.3660736 27.6981964,39.0782775 C27.6981964,39.7901001 27.1187439,40.3695526 26.4069214,40.3695526 Z M51.5930786,53.142685 C53.4058228,53.142685 54.9549713,51.9940796 55.5515899,50.3865662 L63.1794586,50.3865662 C62.0686188,54.6197357 59.854187,58.5011902 56.6776886,61.6776886 C56.3202515,62.0351258 56.2672271,62.0950165 55.8926239,62.4276581 L55.8926239,55.2117768 C55.8926239,54.4026795 55.2368774,53.746933 54.4277802,53.746933 C53.6190644,53.746933 52.9629364,54.4026795 52.9629364,55.2117768 L52.9629364,64.7447052 C52.9629364,64.7447052 52.0390167,65.3626861 51.1860504,65.8402862 L51.1860504,57.1649018 C51.1860504,56.3561859 50.5303039,55.700058 49.7212066,55.700058 C48.9124908,55.700058 48.2563629,56.3561859 48.2563629,57.1649018 L48.2563629,67.236084 C47.2408905,67.6400604 46.1987152,67.9788056 45.1340332,68.2458344 L45.1340332,39.8457947 L48.9124908,39.8457947 C49.1284027,40.6003418 49.5487823,41.2690582 50.1103058,41.787857 C50.8629455,42.4825135 51.8677368,42.9082336 52.9705658,42.9082336 C55.298294,42.9082336 57.1915283,41.014618 57.1915283,38.6872711 C57.1915283,36.3595429 55.298294,34.4659271 52.9705658,34.4659271 C51.2753144,34.4659271 49.811615,35.4707184 49.1406098,36.9157257 L43.6695709,36.9157257 C42.8604736,36.9157257 42.2047271,37.5718536 42.2047271,38.3805694 L42.2047271,68.7966767 C41.1499634,68.930954 40.0803223,69 39,69 C32.3223725,69 26.0441437,66.3995209 21.3223114,61.6776886 C16.6004791,56.9558563 14,50.6776275 14,44 C14,42.8334656 14.081253,41.6791382 14.2372742,40.5431213 L22.4484101,40.5431213 C23.0450287,42.1506348 24.5941772,43.2992401 26.4069214,43.2992401 C27.2797241,43.2992401 28.0918731,43.0325928 28.7655487,42.577118 C29.8882141,41.8176117 30.6278839,40.5324402 30.6278839,39.0778961 C30.6278839,38.2531586 30.3890839,37.4837342 29.9786225,36.8329468 C29.2305604,35.6469574 27.9095307,34.857315 26.4069214,34.857315 C24.5941772,34.857315 23.0450287,36.0059204 22.4484101,37.6134338 L14.8205414,37.6134338 C15.9309998,33.3802643 18.145813,29.4988098 21.3223114,26.3223114 C21.6786041,25.9660187 21.7339172,25.9038391 22.1069946,25.5719604 L22.1069946,31.689209 C22.1069946,32.4983062 22.7631226,33.1540527 23.5718384,33.1540527 C24.3809356,33.1540527 25.0366821,32.4983062 25.0366821,31.689209 L25.0366821,23.2522431 C25.0366821,23.2522431 26.1910096,22.5087586 26.8139496,22.1597138 L26.8139496,29.736084 C26.8139496,30.5447998 27.4696961,31.2009277 28.2787934,31.2009277 C29.0875092,31.2009277 29.7436371,30.5447998 29.7436371,29.736084 L29.7436371,20.7642975 C30.6507721,20.4030457 31.5796509,20.0955811 32.5264588,19.8434296 L32.5264588,48.598999 L28.9879455,48.598999 C28.7472382,47.9512635 28.3520355,47.3782959 27.8473511,46.9247284 C27.099289,46.2525787 26.1112823,45.8428803 25.0294342,45.8428803 C22.701706,45.8428803 20.8080902,47.736496 20.8080902,50.0638428 C20.8080902,52.3911896 22.701706,54.2848053 25.0294342,54.2848053 C26.8417969,54.2848053 28.3909454,53.1362 28.9879455,51.5286865 L33.9913025,51.5286865 C34.8000184,51.5286865 35.4561463,50.87294 35.4561463,50.0638428 L35.4561463,19.2490997 C36.6200104,19.0850678 37.8033295,19 39,19 C45.6776275,19 51.9558563,21.6004791 56.6776886,26.3223114 C61.3995209,31.0441437 64,37.3223725 64,44 C64,45.1665344 63.918747,46.3208618 63.7627258,47.4568787 L55.5515899,47.4568787 C54.9549713,45.8493652 53.4058228,44.7007599 51.5930786,44.7007599 C50.7809296,44.7007599 50.0214233,44.9319306 49.377121,45.3313293 C48.1751099,46.0763397 47.3724976,47.4069062 47.3724976,48.9217225 C47.3724976,49.8193207 47.6547852,50.6513062 48.1339111,51.3360443 C48.897995,52.4274292 50.1633301,53.142685 51.5930786,53.142685 Z M46.5576782,32.5204315 C48.885025,32.5204315 50.7782593,30.6268158 50.7786407,28.2994689 C50.7786407,25.9717407 48.885025,24.0785064 46.5576782,24.0785064 C44.22995,24.0785064 42.3363342,25.9717407 42.3363342,28.2994689 C42.3363342,28.7946167 42.4229278,29.2703095 42.5804748,29.7124328 L37.8910675,33.6289825 C37.5580444,33.907074 37.3654022,34.3190613 37.3654022,34.7531738 L37.3654022,53.3429565 L35.3550567,54.4290009 C35.0651397,54.1741791 34.7408905,53.9575043 34.3891754,53.7888946 C33.8383331,53.5249176 33.221878,53.3769073 32.5710907,53.3769073 C30.2437439,53.3769073 28.3501281,55.2701416 28.3501281,57.5978699 C28.3501281,59.9252167 30.2437439,61.8188324 32.5710907,61.8188324 C34.8988189,61.8188324 36.7920532,59.9252167 36.7920532,57.5978699 C36.7920532,57.3964539 36.7771759,57.1988525 36.7497101,57.0054474 L39.5264282,55.505127 C40.0002137,55.2495422 40.2950897,54.754776 40.2950897,54.2165223 L40.2950897,35.4382935 L44.4599762,31.959671 C44.5511475,32.0123139 44.6438446,32.0622863 44.739212,32.1080627 C45.2900543,32.3720398 45.9068908,32.5204315 46.5576782,32.5204315 Z M63.17984,50.3858032 C63.4312286,49.4264068 63.6261597,48.4490814 63.7627258,47.4576416 C63.6261597,48.4490814 63.4312286,49.4264068 63.17984,50.3858032 Z M14.2376557,40.5423584 C14.3738403,39.5509186 14.5687714,38.5735932 14.8205414,37.6138153 C14.5687714,38.5735932 14.3738403,39.5509186 14.2376557,40.5423584 Z" id="Combined-Shape"></path>
                    </g>
                </g>
            </g>
        </g>
    </g>
</svg>