<?xml version="1.0" encoding="UTF-8"?>
<svg width="50px" height="45px" viewBox="0 0 50 45" version="1.1" xmlns="http://www.w3.org/2000/svg" xmlns:xlink="http://www.w3.org/1999/xlink">
    <!-- Generator: Sketch 52.4 (67378) - http://www.bohemiancoding.com/sketch -->
    <title>Combined Shape</title>
    <desc>Created with Sketch.</desc>
    <defs>
        <linearGradient x1="42.526259%" y1="34.6115068%" x2="100%" y2="88.5992192%" id="linearGradient-1">
            <stop stop-color="#80C3F3" stop-opacity="0.5" offset="0%"></stop>
            <stop stop-color="#4A90E2" stop-opacity="0.5" offset="100%"></stop>
        </linearGradient>
    </defs>
    <g id="Page-1" stroke="none" stroke-width="1" fill="none" fill-rule="evenodd">
        <g id="01---Colega-Copy" transform="translate(-1016.000000, -1660.000000)" fill="url(#linearGradient-1)">
            <g id="Group-14" transform="translate(0.000000, 1592.000000)">
                <g id="Group-12" transform="translate(185.000000, 46.000000)">
                    <g id="Group-6" transform="translate(817.000000, 0.000000)">
                        <path d="M25.8164062,26.3548399 C26.6260742,26.3548399 27.28125,27.0040981 27.28125,27.8064532 C27.28125,28.6088082 26.6260742,29.2580665 25.8164062,29.2580665 L18.3945312,29.2580665 C17.5848633,29.2580665 16.9296875,28.6088082 16.9296875,27.8064532 C16.9296875,27.0040981 17.5848633,26.3548399 18.3945312,26.3548399 L25.8164062,26.3548399 Z M25.8164062,37.9677462 C26.6260742,37.9677462 27.28125,38.6170045 27.28125,39.4193595 C27.28125,40.2217146 26.6260742,40.8709728 25.8164062,40.8709728 L18.3945312,40.8709728 C17.5848633,40.8709728 16.9296875,40.2217146 16.9296875,39.4193595 C16.9296875,38.6170045 17.5848633,37.9677462 18.3945312,37.9677462 L25.8164062,37.9677462 Z M22.8867188,32.1612931 C23.6963867,32.1612931 24.3515625,32.8105513 24.3515625,33.6129063 C24.3515625,34.4152614 23.6963867,35.0645196 22.8867188,35.0645196 L15.4648438,35.0645196 C14.6551758,35.0645196 14,34.4152614 14,33.6129063 C14,32.8105513 14.6551758,32.1612931 15.4648438,32.1612931 L22.8867188,32.1612931 Z M61.0703125,39.4193595 C62.6881836,39.4193595 64,40.7193276 64,42.3225861 C64,43.9258446 62.6881836,45.2258127 61.0703125,45.2258127 L49.2539062,45.2258127 C47.6360352,45.2258127 46.3242188,43.9258446 46.3242188,42.3225861 L46.3242188,40.6214889 L41.6779297,45.2258127 L48.3956055,51.8828145 C49.5400391,53.0169116 49.5400391,54.8540733 48.3956055,55.9881704 L38.1416992,66.1494635 C36.9972656,67.2835606 35.1432617,67.2834638 33.9989258,66.1494635 C32.8544922,65.0153664 32.8544922,63.1782046 33.9989258,62.0441075 L42.1814453,53.9354925 L35.4637695,47.2784907 C34.3193359,46.1443936 34.3193359,44.3072318 35.4637695,43.1731347 L47.1816406,31.5610993 C49.0362305,29.7208408 52.1835938,31.0632928 52.1835938,33.6129063 L52.1835938,39.4193595 L61.0703125,39.4193595 Z M41.3574219,24.665162 L46.7705078,28.3788727 C46.1530273,28.6663889 45.5883789,29.0346148 45.109668,29.509002 L42.2477539,32.3450673 L40.1057617,30.8160346 L33.747168,37.1171976 C32.6027344,38.2512947 30.7487305,38.2513915 29.6042969,37.1172944 C28.4598633,35.9831973 28.4598633,34.1460355 29.6042969,33.0119384 L37.6609375,25.0280653 C38.6480469,24.0499683 40.1929688,23.8982263 41.3574219,24.665162 Z M33.3923828,49.3311686 L35.4637695,51.3838466 L20.5635742,66.1494635 C19.4191406,67.2835606 17.5651367,67.2834638 16.4208008,66.1494635 C15.2763672,65.0153664 15.2763672,63.1782046 16.4208008,62.0441075 L31.8933594,46.711297 C32.1545898,47.690265 32.6500977,48.5955878 33.3923828,49.3311686 Z M53.6484375,30.7096798 C51.2214049,30.7096798 49.2539062,28.7599515 49.2539062,26.3548399 C49.2539062,23.9497282 51.2214049,22 53.6484375,22 C56.0754701,22 58.0429688,23.9497282 58.0429688,26.3548399 C58.0429688,28.7599515 56.0754701,30.7096798 53.6484375,30.7096798 Z" id="Combined-Shape"></path>
                    </g>
                </g>
            </g>
        </g>
    </g>
</svg>