<?xml version="1.0" encoding="UTF-8"?>
<svg width="50px" height="30px" viewBox="0 0 50 30" version="1.1" xmlns="http://www.w3.org/2000/svg" xmlns:xlink="http://www.w3.org/1999/xlink">
    <!-- Generator: Sketch 52.4 (67378) - http://www.bohemiancoding.com/sketch -->
    <title>Combined Shape</title>
    <desc>Created with Sketch.</desc>
    <defs>
        <linearGradient x1="42.526259%" y1="34.6115068%" x2="100%" y2="88.5992192%" id="linearGradient-1">
            <stop stop-color="#80C3F3" stop-opacity="0.5" offset="0%"></stop>
            <stop stop-color="#4A90E2" stop-opacity="0.5" offset="100%"></stop>
        </linearGradient>
    </defs>
    <g id="Page-1" stroke="none" stroke-width="1" fill="none" fill-rule="evenodd">
        <g id="01---Colega-Copy" transform="translate(-471.000000, -1667.000000)" fill="url(#linearGradient-1)">
            <g id="Group-14" transform="translate(0.000000, 1592.000000)">
                <g id="Group-12" transform="translate(185.000000, 46.000000)">
                    <g id="Group-4" transform="translate(272.000000, 0.000000)">
                        <path d="M26.0833008,31.3571658 C26.5,31.5715175 26.5,32.0000201 26.5000977,32.2143718 C26.0833984,37.7857085 22.3333984,49.1428342 22.3333984,49.7856885 C22.125,50.2142915 21.7083984,50.4285427 21.2916992,50.4285427 L15.0416992,50.4285427 C14.4166992,50.4285427 14,49.9999397 14,49.3570855 L14,30.0714573 C14,29.857206 14.2083008,29.428603 14.4166016,29.2142513 C14.6249023,29 14.8333008,29 15.0416016,29 C17.3333008,29.2143517 24.4166016,29.6428543 26.0833008,31.3571658 Z M48.375,36.5 C49.4166992,38.4285628 51.9166992,45.7143115 53.375,50.0000402 L53.1666992,50.0000402 C51.7083008,48.0714774 48.7916992,45.5000603 45.875,43.1428945 C44,41.4285829 42.125,39.9286231 41.0832031,38.8570654 C40.8749023,38.8570654 40.4582031,38.6428141 40.2499023,38.6428141 C40.0415039,38.6428141 40.0415039,38.6428141 39.8332031,38.6428141 C39.2082031,38.8570654 38.7916016,39.0714171 38.3749023,39.2856684 C37.7499023,39.5000201 37.5416016,39.7142714 36.9166016,39.7142714 C36.5,39.7142714 36.2916016,39.9286231 36.0833008,40.1428744 C34.625,42.5000402 33.1666992,42.2857889 32.125,41.8571859 C31.7083008,41.6428342 31.7083008,41.6428342 31.7083008,41.4285829 C31.5,40.5714774 32.5416992,38.4285628 34,36.928603 C37.3333008,33.5000804 39,32.6428744 42.75,34.3571859 C44.4166992,35.0000402 46.2916992,35.8571457 48.375,36.5 Z M62.9583008,31.1429145 C63.5833008,31.1429145 64,31.5715175 64,32.2141709 L64,51.4997991 C64,52.1426534 63.5833008,52.5712564 62.9583008,52.5712564 L56.7083008,52.5712564 C56.2916016,52.5712564 55.8749023,52.1427538 55.6666016,51.7141508 C55.0416016,48.7142312 50.8749023,36.9285026 49.6249023,34.7856885 C49.4166016,34.5714372 49.4166016,34.1428342 49.4166016,33.9285829 C49.6249023,33.7143316 49.8333008,33.4999799 50.0416016,33.2857286 C50.25,33.2857286 54.8333008,31.1429145 62.9583008,31.1429145 Z M51.7083008,52.1428543 C52.125,52.9999598 51.7083008,53.6428141 51.5,53.8571658 C51.0833008,54.0714171 50.6666992,54.2856684 50.25,54.0714171 L44.2083008,47.8571256 C43.7916992,47.4285226 43.1666992,47.4286231 42.75,47.8571256 C42.3333008,48.2856282 42.3333008,48.9284825 42.75,49.3570855 L48.5833008,55.3571256 C48.375,55.7856282 47.9583008,55.9999799 47.75,56.2142312 C47.125,56.4284825 46.2916016,56.4284825 46.0833008,56.2142312 L40.875,50.8571457 C40.4583984,50.4285427 39.8333984,50.4286432 39.4166992,50.8571457 C39,51.2856483 39,51.9285026 39.4166992,52.3571055 L44.2083984,57.2856885 C44,57.9285427 43.7916992,58.3571457 43.1666992,58.571397 C42.75,58.571397 42.3333984,58.7857487 41.9166992,58.3571457 L37.75,54.0714171 C37.3333984,53.6428141 36.7083984,53.6429145 36.2916992,54.0714171 C35.875,54.4999196 35.875,55.1427739 36.2916992,55.5713769 L39.6250977,59 C39.4167969,59 39.2083984,59 39.0000977,59 C38.3750977,59 37.1250977,58.5714974 36.5000977,58.1428945 C35.6667969,57.5000402 31.0833984,54.0714171 27.1250977,50.6428945 C26.5000977,50.2142915 25.6666992,49.1428342 24.8333984,48.2857286 C25.875,45.2857085 27.3333984,39.7143718 28.1666992,35.4286432 L32.3333984,35.4286432 C30.875,36.928603 29,39.9286231 29.4166992,42.0714372 C29.625,42.9285427 30.25,43.7857487 31.2916992,44 C33.5833008,44.8571055 35.6666992,44 37.3333008,41.8571859 C38.1666992,41.8571859 38.375,41.6428342 39,41.4285829 C39,41.2142312 39.4166992,41.2142312 39.625,40.9999799 C40.875,42.0714372 42.5416992,43.3571457 44.2083008,44.857206 C47.3333008,47.4286231 50.875,50.2142915 51.7083008,52.1428543 Z" id="Combined-Shape"></path>
                    </g>
                </g>
            </g>
        </g>
    </g>
</svg>