<?xml version="1.0" encoding="UTF-8"?>
<svg width="97px" height="100px" viewBox="0 0 97 100" version="1.1" xmlns="http://www.w3.org/2000/svg" xmlns:xlink="http://www.w3.org/1999/xlink">
    <!-- Generator: Sketch 52.4 (67378) - http://www.bohemiancoding.com/sketch -->
    <title>Combined Shape</title>
    <desc>Created with Sketch.</desc>
    <defs>
        <filter x="-21.0%" y="-47.7%" width="142.1%" height="195.3%" filterUnits="objectBoundingBox" id="filter-1">
            <feOffset dx="0" dy="7" in="SourceAlpha" result="shadowOffsetOuter1"></feOffset>
            <feGaussianBlur stdDeviation="15" in="shadowOffsetOuter1" result="shadowBlurOuter1"></feGaussianBlur>
            <feColorMatrix values="0 0 0 0 0.790696955   0 0 0 0 0.818432563   0 0 0 0 0.850605867  0 0 0 0.729987545 0" type="matrix" in="shadowBlurOuter1" result="shadowMatrixOuter1"></feColorMatrix>
            <feMerge>
                <feMergeNode in="shadowMatrixOuter1"></feMergeNode>
                <feMergeNode in="SourceGraphic"></feMergeNode>
            </feMerge>
        </filter>
    </defs>
    <g id="Page-1" stroke="none" stroke-width="1" fill="none" fill-rule="evenodd">
        <g id="13---Colega" transform="translate(-195.000000, -425.000000)" fill="#DCE0E6" fill-rule="nonzero">
            <g id="Group-5" filter="url(#filter-1)" transform="translate(200.000000, 394.000000)">
                <g id="Group-35">
                    <g id="Group-4">
                        <path d="M63.9693902,66.5880469 C65.3437059,67.9621094 65.3433934,70.1860156 63.969312,71.5599219 L55.4708999,80.0649219 L55.4708999,90.484375 C55.4708999,92.4228906 53.8936793,94 51.9550269,94 L28.5158731,94 C26.5772207,94 25,92.4228906 25,90.484375 L25,57.515625 C25,55.5771094 26.5772207,54 28.5158731,54 L48.6402617,54 C49.5793905,54 50.4623434,54.365625 51.1263746,55.0296875 L54.4410616,58.3442969 C55.105171,59.0082812 55.4708999,59.8910938 55.4708999,60.8301563 L55.4708999,70.1169531 C55.8822571,69.7052344 58.5750252,67.0104688 58.9967737,66.5883594 C60.3680423,65.2173437 62.5985903,65.2172656 63.9693902,66.5880469 Z M48.4392319,56.34375 L48.4392319,61.03125 L53.1270627,61.03125 C53.1270627,60.7810937 53.1556584,60.3735156 52.7837572,60.0015625 L49.4689921,56.6869531 C49.0873245,56.3053906 48.6606538,56.34375 48.4392319,56.34375 Z M53.1269845,90.484375 L53.1269845,82.409375 L52.984787,82.5515625 C52.8561842,82.6802344 52.6992981,82.7771875 52.5267078,82.8346875 L47.554482,84.4919531 C47.1339836,84.6321875 46.6694977,84.523125 46.3551786,84.2088281 C46.0412502,83.895 45.9316331,83.4307031 46.0720336,83.0096094 L47.7294943,78.0377344 C47.7869984,77.8651562 47.8840365,77.7082812 48.0126393,77.5796875 L49.6692406,75.923125 C49.6693968,75.9230469 53.1269845,72.4627344 53.1269845,72.4627344 L53.1269845,63.375 L47.2671961,63.375 C46.6199629,63.375 46.0952384,62.8503125 46.0952384,62.203125 L46.0952384,56.34375 L28.5158731,56.34375 C27.8696556,56.34375 27.3439154,56.8694531 27.3439154,57.515625 L27.3439154,90.484375 C27.3439154,91.1305469 27.8696556,91.65625 28.5158731,91.65625 L51.9550269,91.65625 C52.6013225,91.65625 53.1269845,91.1305469 53.1269845,90.484375 Z M50.4986741,78.4083594 L49.8655826,79.0413281 L49.0369303,81.5272656 L51.5229651,80.6986719 L52.1560567,80.065625 L50.4986741,78.4083594 Z M53.8131267,78.4079687 L59.4467273,72.77 L57.7893448,71.1127344 C56.9580361,71.9446875 53.0383064,75.8675 52.1557441,76.7507031 L53.8131267,78.4079687 Z M62.311617,69.9029687 C62.7713369,69.4432031 62.7689148,68.7023437 62.3120857,68.2453125 C61.8551785,67.7884375 61.1118448,67.7883594 60.654625,68.2453125 L59.4461023,69.4547656 L61.1034848,71.1120313 L62.311617,69.9029687 Z M47.2671961,65.71875 C47.9144293,65.71875 48.4391538,66.2434375 48.4391538,66.890625 C48.4391538,67.5378125 47.9144293,68.0625 47.2671961,68.0625 L30.8597884,68.0625 C30.2125553,68.0625 29.6878308,67.5378125 29.6878308,66.890625 C29.6878308,66.2434375 30.2125553,65.71875 30.8597884,65.71875 L47.2671961,65.71875 Z M42.5793653,70.40625 C43.2265985,70.40625 43.751323,70.9309375 43.751323,71.578125 C43.751323,72.2253125 43.2265985,72.75 42.5793653,72.75 L30.8597884,72.75 C30.2125553,72.75 29.6878308,72.2253125 29.6878308,71.578125 C29.6878308,70.9309375 30.2125553,70.40625 30.8597884,70.40625 L42.5793653,70.40625 Z M42.5793653,75.09375 C43.2265985,75.09375 43.751323,75.6184375 43.751323,76.265625 C43.751323,76.9128125 43.2265985,77.4375 42.5793653,77.4375 L30.8597884,77.4375 C30.2125553,77.4375 29.6878308,76.9128125 29.6878308,76.265625 C29.6878308,75.6184375 30.2125553,75.09375 30.8597884,75.09375 L42.5793653,75.09375 Z M42.5793653,79.78125 C43.2265985,79.78125 43.751323,80.3059375 43.751323,80.953125 C43.751323,81.6003125 43.2265985,82.125 42.5793653,82.125 L30.8597884,82.125 C30.2125553,82.125 29.6878308,81.6003125 29.6878308,80.953125 C29.6878308,80.3059375 30.2125553,79.78125 30.8597884,79.78125 L42.5793653,79.78125 Z M47.2671961,86.96875 C47.9144293,86.96875 48.4391538,87.4934375 48.4391538,88.140625 C48.4391538,88.7878125 47.9144293,89.3125 47.2671961,89.3125 L40.23545,89.3125 C39.5882168,89.3125 39.0634923,88.7878125 39.0634923,88.140625 C39.0634923,87.4934375 39.5882168,86.96875 40.23545,86.96875 L47.2671961,86.96875 Z" id="Combined-Shape"></path>
                    </g>
                </g>
            </g>
        </g>
    </g>
</svg>