<?xml version="1.0" encoding="UTF-8"?>
<svg width="80px" height="80px" viewBox="0 0 80 80" version="1.1" xmlns="http://www.w3.org/2000/svg" xmlns:xlink="http://www.w3.org/1999/xlink">
    <!-- Generator: Sketch 52.4 (67378) - http://www.bohemiancoding.com/sketch -->
    <title>Combined Shape</title>
    <desc>Created with Sketch.</desc>
    <g id="Page-1" stroke="none" stroke-width="1" fill="none" fill-rule="evenodd">
        <g id="14---Colega" transform="translate(-680.000000, -301.000000)" fill="#0D58AF" fill-rule="nonzero">
            <path d="M757.93878,326.176094 C760.687412,328.924219 760.686787,333.372031 757.938624,336.119844 L740.9418,353.129844 L740.9418,373.96875 C740.9418,377.845781 737.787359,381 733.910054,381 L687.031746,381 C683.154441,381 680,377.845781 680,373.96875 L680,308.03125 C680,304.154219 683.154441,301 687.031746,301 L727.280523,301 C729.158781,301 730.924687,301.73125 732.252749,303.059375 L738.882123,309.688594 C740.210342,311.016563 740.9418,312.782188 740.9418,314.660312 L740.9418,333.233906 C741.764514,332.410469 747.15005,327.020938 747.993547,326.176719 C750.736085,323.434687 755.197181,323.434531 757.93878,326.176094 Z M726.878464,305.6875 L726.878464,315.0625 L736.254125,315.0625 C736.254125,314.562187 736.311317,313.747031 735.567514,313.003125 L728.937984,306.373906 C728.174649,305.610781 727.321308,305.6875 726.878464,305.6875 Z M736.253969,373.96875 L736.253969,357.81875 L735.969574,358.103125 C735.712368,358.360469 735.398596,358.554375 735.053416,358.669375 L725.108964,361.983906 C724.267967,362.264375 723.338995,362.04625 722.710357,361.417656 C722.0825,360.79 721.863266,359.861406 722.144067,359.019219 L725.458989,349.075469 C725.573997,348.730313 725.768073,348.416562 726.025279,348.159375 L729.338481,344.84625 C729.338794,344.846094 736.253969,337.925469 736.253969,337.925469 L736.253969,319.75 L724.534392,319.75 C723.239926,319.75 722.190477,318.700625 722.190477,317.40625 L722.190477,305.6875 L687.031746,305.6875 C685.739311,305.6875 684.687831,306.738906 684.687831,308.03125 L684.687831,373.96875 C684.687831,375.261094 685.739311,376.3125 687.031746,376.3125 L733.910054,376.3125 C735.202645,376.3125 736.253969,375.261094 736.253969,373.96875 Z M730.997348,349.816719 L729.731165,351.082656 L728.073861,356.054531 L733.04593,354.397344 L734.312113,353.13125 L730.997348,349.816719 Z M737.626253,349.815938 L748.893455,338.54 L745.57869,335.225469 C743.916072,336.889375 736.076613,344.735 734.311488,346.501406 L737.626253,349.815938 Z M754.623234,332.805938 C755.542674,331.886406 755.53783,330.404688 754.624171,329.490625 C753.710357,328.576875 752.22369,328.576719 751.30925,329.490625 L748.892205,331.909531 L752.20697,335.224063 L754.623234,332.805938 Z M724.534392,324.4375 C725.828859,324.4375 726.878308,325.486875 726.878308,326.78125 C726.878308,328.075625 725.828859,329.125 724.534392,329.125 L691.719577,329.125 C690.425111,329.125 689.375662,328.075625 689.375662,326.78125 C689.375662,325.486875 690.425111,324.4375 691.719577,324.4375 L724.534392,324.4375 Z M715.158731,333.8125 C716.453197,333.8125 717.502646,334.861875 717.502646,336.15625 C717.502646,337.450625 716.453197,338.5 715.158731,338.5 L691.719577,338.5 C690.425111,338.5 689.375662,337.450625 689.375662,336.15625 C689.375662,334.861875 690.425111,333.8125 691.719577,333.8125 L715.158731,333.8125 Z M715.158731,343.1875 C716.453197,343.1875 717.502646,344.236875 717.502646,345.53125 C717.502646,346.825625 716.453197,347.875 715.158731,347.875 L691.719577,347.875 C690.425111,347.875 689.375662,346.825625 689.375662,345.53125 C689.375662,344.236875 690.425111,343.1875 691.719577,343.1875 L715.158731,343.1875 Z M715.158731,352.5625 C716.453197,352.5625 717.502646,353.611875 717.502646,354.90625 C717.502646,356.200625 716.453197,357.25 715.158731,357.25 L691.719577,357.25 C690.425111,357.25 689.375662,356.200625 689.375662,354.90625 C689.375662,353.611875 690.425111,352.5625 691.719577,352.5625 L715.158731,352.5625 Z M724.534392,366.9375 C725.828859,366.9375 726.878308,367.986875 726.878308,369.28125 C726.878308,370.575625 725.828859,371.625 724.534392,371.625 L710.4709,371.625 C709.176434,371.625 708.126985,370.575625 708.126985,369.28125 C708.126985,367.986875 709.176434,366.9375 710.4709,366.9375 L724.534392,366.9375 Z" id="Combined-Shape"></path>
        </g>
    </g>
</svg>