<?xml version="1.0" encoding="UTF-8"?>
<svg width="201px" height="61px" viewBox="0 0 201 61" version="1.1" xmlns="http://www.w3.org/2000/svg" xmlns:xlink="http://www.w3.org/1999/xlink">
    <!-- Generator: Sketch 52.4 (67378) - http://www.bohemiancoding.com/sketch -->
    <title>Group 3</title>
    <desc>Created with Sketch.</desc>
    <g id="Page-1" stroke="none" stroke-width="1" fill="none" fill-rule="evenodd">
        <g id="02---Colega" transform="translate(-150.000000, -136.000000)" fill="#FFFFFF">
            <g id="Group-3" transform="translate(150.000000, 136.000000)">
                <g id="Group-2-Copy-2">
                    <path d="M6.68379591,38.3511312 C4.54927574,37.2524887 2.90152807,35.7167421 1.7405529,33.7420814 C0.579577729,31.7701357 0,29.478733 0,26.8696833 L0,13.0714932 C0,10.4660633 0.579577729,8.17556561 1.7405529,6.20180995 C2.90152807,4.22714932 4.54927574,2.70045249 6.68379591,1.6199095 C8.81831609,0.540271493 11.2894827,0 14.0972957,0 C16.8687144,0 19.3216839,0.522171946 21.4552942,1.5638009 C23.5898144,2.60723982 25.2375621,4.07873303 26.3985372,5.97737557 C27.5576927,7.8760181 28.14,10.0751131 28.14,12.5701357 C28.14,12.9420814 27.8579449,13.1665158 27.2965643,13.238914 L22.5225543,13.519457 L22.2978201,13.519457 C21.8483517,13.519457 21.6245273,13.4271493 21.6245273,13.238914 L21.6245273,12.9058824 C21.6245273,10.7076923 20.9412261,8.93846154 19.5746236,7.59819005 C18.2071114,6.25701357 16.3819419,5.58642534 14.0972957,5.58642534 C11.8126494,5.58642534 9.97929126,6.25701357 8.59449172,7.59819005 C7.20787248,8.93846154 6.51456286,10.7076923 6.51456286,12.9058824 L6.51456286,27.1502262 C6.51456286,29.3113122 7.20787248,31.0606335 8.59449172,32.4027149 C9.97929126,33.7420814 11.8126494,34.4126697 14.0972957,34.4126697 C16.3819419,34.4126697 18.2071114,33.7520362 19.5746236,32.4298643 C20.9412261,31.1076923 21.6245273,29.3475113 21.6245273,27.1502262 C21.6245273,26.9638009 21.7091438,26.8063348 21.877467,26.6751131 C22.0448804,26.5447964 22.260516,26.4986425 22.5225543,26.5348416 L27.241973,26.759276 C27.8397478,26.8334842 28.14,26.9276018 28.14,27.038009 L28.14,27.318552 C28.14,29.8497738 27.5576927,32.0751131 26.3985372,33.9945701 C25.2375621,35.9131222 23.5898144,37.3927602 21.4552942,38.4352941 C19.3216839,39.4778281 16.8687144,40 14.0972957,40 C11.2894827,40 8.81831609,39.4506787 6.68379591,38.3511312" id="Fill-1-Copy"></path>
                    <path d="M53.1266223,32.2557646 C54.5255173,30.8081765 55.2276516,28.895808 55.2276516,26.5186589 L55.2276516,13.5372952 C55.2276516,11.1231443 54.5255173,9.19182347 53.1266223,7.7424304 C51.7259362,6.2939398 49.8640266,5.57104824 47.5426848,5.57104824 C45.2571662,5.57104824 43.4140638,6.2939398 42.0133777,7.7424304 C40.6117959,9.19182347 39.9123484,11.1231443 39.9123484,13.5372952 L39.9123484,26.5186589 C39.9123484,28.895808 40.6117959,30.8081765 42.0133777,32.2557646 C43.4140638,33.7051577 45.2571662,34.4298542 47.5426848,34.4298542 C49.8640266,34.4298542 51.7259362,33.7051577 53.1266223,32.2557646 M40.189978,38.3015207 C38.0513345,37.1689003 36.4016772,35.5624746 35.2419019,33.4813411 C34.0803354,31.402915 33.5,29.0059113 33.5,26.2957448 L33.5,13.5932494 C33.5,10.9182799 34.0883957,8.55105817 35.2696649,6.48887686 C36.4482474,4.42940301 38.0979046,2.83200217 40.2168454,1.69847931 C42.3366818,0.565858941 44.7780313,0 47.5426848,0 C50.3431616,0 52.8033182,0.565858941 54.9231546,1.69847931 C57.0411998,2.83200217 58.6899615,4.42940301 59.8703351,6.48887686 C61.0498132,8.55105817 61.64,10.9182799 61.64,13.5932494 L61.64,26.2957448 C61.64,29.0059113 61.0498132,31.402915 59.8703351,33.4813411 C58.6899615,35.5624746 57.0411998,37.1689003 54.9231546,38.3015207 C52.8033182,39.4341411 50.3431616,40 47.5426848,40 C44.7780313,40 42.3259349,39.4341411 40.189978,38.3015207" id="Fill-4-Copy"></path>
                    <path d="M67,0.91456077 C67,0.305470703 67.3042608,0 67.9155654,0 L72.7271538,0 C73.3366031,0 73.6427192,0.305470703 73.6427192,0.91456077 L73.6427192,33.9433491 C73.6427192,34.1719893 73.7558894,34.2849209 73.9859403,34.2849209 L92.8825793,34.2849209 C93.4929563,34.2849209 93.8,34.5913172 93.8,35.201333 L93.8,39.0863649 C93.8,39.6963806 93.4929563,40 92.8825793,40 L67.9155654,40 C67.3042608,40 67,39.6963806 67,39.0863649 L67,0.91456077 Z" id="Fill-6-Copy"></path>
                    <path d="M125.055981,5.71507914 L106.05784,5.71507914 C105.83069,5.71507914 105.718947,5.82893641 105.718947,6.05850227 L105.718947,16.6287142 C105.718947,16.8573544 105.83069,16.9721374 106.05784,16.9721374 L118.722351,16.9721374 C119.324115,16.9721374 119.62637,17.2776081 119.62637,17.8857725 L119.62637,21.7717301 C119.62637,22.3817458 119.324115,22.6853652 118.722351,22.6853652 L106.05784,22.6853652 C105.83069,22.6853652 105.718947,22.8001481 105.718947,23.0287883 L105.718947,33.9433491 C105.718947,34.1719893 105.83069,34.2849209 106.05784,34.2849209 L125.055981,34.2849209 C125.657744,34.2849209 125.96,34.5903916 125.96,35.201333 L125.96,39.0863649 C125.96,39.6963806 125.657744,40 125.055981,40 L100.064019,40 C99.4604238,40 99.16,39.6963806 99.16,39.0863649 L99.16,0.913635101 C99.16,0.305470703 99.4604238,0 100.064019,0 L125.055981,0 C125.657744,0 125.96,0.305470703 125.96,0.913635101 L125.96,4.80144404 C125.96,5.41145978 125.657744,5.71507914 125.055981,5.71507914" id="Fill-8-Copy"></path>
                    <path d="M138.017439,38.3511312 C135.878561,37.2524887 134.227451,35.6968326 133.064106,33.6868778 C131.900761,31.6760181 131.32,29.3665158 131.32,26.759276 L131.32,13.238914 C131.32,10.5954751 131.900761,8.27782805 133.064106,6.2841629 C134.227451,4.29230769 135.878561,2.74660633 138.017439,1.6479638 C140.156316,0.549321267 142.632526,0 145.44607,0 C148.222234,0 150.672005,0.540271493 152.790825,1.6199095 C154.910556,2.70045249 156.552549,4.17104072 157.715894,6.03348416 C158.878328,7.8959276 159.46,10 159.46,12.3457014 L159.46,12.5701357 C159.46,13.1665158 159.160047,13.4633484 158.559228,13.4633484 L153.888526,13.4633484 C153.625041,13.4633484 153.409877,13.4171946 153.242122,13.3239819 C153.073455,13.2307692 152.987754,13.1095023 152.987754,12.960181 L152.987754,12.5131222 C152.987754,10.5031674 152.30397,8.84615385 150.934578,7.54117647 C149.564275,6.23800905 147.73538,5.58642534 145.44607,5.58642534 C143.156761,5.58642534 141.318749,6.26696833 139.931123,7.62624434 C138.542585,8.98461538 137.84786,10.7828054 137.84786,13.0162896 L137.84786,26.9819005 C137.84786,29.2171946 138.579965,31.0144796 140.044175,32.3737557 C141.507473,33.7330317 143.400188,34.4126697 145.726878,34.4126697 C147.979719,34.4126697 149.752087,33.8262443 151.045807,32.6524887 C152.340439,31.478733 152.987754,29.8696833 152.987754,27.8208145 L152.987754,24.4135747 C152.987754,24.1891403 152.874702,24.078733 152.650421,24.078733 L146.009509,24.078733 C145.407778,24.078733 145.108737,23.7791855 145.108737,23.1846154 L145.108737,19.4968326 C145.108737,18.9013575 145.407778,18.6036199 146.009509,18.6036199 L158.559228,18.6036199 C159.160047,18.6036199 159.46,18.9013575 159.46,19.4968326 L159.46,26.4235294 C159.46,30.7085973 158.193632,34.040724 155.661807,36.4235294 C153.12907,38.8072398 149.724736,40 145.44607,40 C142.632526,40 140.156316,39.4506787 138.017439,38.3511312" id="Fill-10-Copy"></path>
                    <path d="M200.814128,38.5241584 L181.964738,0.650716009 C181.750911,0.21956132 181.394531,0.00708262323 180.9,0 C180.406349,0.00708262323 180.049089,0.21956132 179.835262,0.650716009 L160.985872,38.5241584 C160.768525,38.9260973 160.742126,39.2713751 160.904917,39.562648 C161.067708,39.8548062 161.385369,40 161.855262,40 L165.593286,40 C166.064058,40 166.534831,39.8548062 167.005604,39.562648 C167.475497,39.2713751 167.801958,38.9075054 167.983227,38.4692681 L180.2154,14.2130542 C180.392269,13.7889821 180.621936,13.5782741 180.9,13.5676501 C181.178944,13.5782741 181.407731,13.7889821 181.5846,14.2130542 L193.816773,38.4692681 C193.998042,38.9075054 194.324503,39.2713751 194.794396,39.562648 C195.265169,39.8548062 195.735942,40 196.207594,40 L199.945618,40 C200.414631,40 200.732292,39.8548062 200.895083,39.562648 C201.057874,39.2713751 201.031475,38.9260973 200.814128,38.5241584" id="Fill-12-Copy"></path>
                </g>
                <path d="M4.00097895,57.7647059 C3.21389719,57.7647059 2.51701233,57.6094787 1.91030348,57.2990196 C1.30359462,56.9885605 0.833538949,56.5473885 0.500122369,55.9754902 C0.166705789,55.4035919 0,54.7472804 0,54.0065359 L0,49.7745098 C0,49.0337654 0.166705789,48.3829004 0.500122369,47.8218954 C0.833538949,47.2608904 1.30359462,46.825165 1.91030348,46.5147059 C2.51701233,46.2042468 3.21389719,46.0490196 4.00097895,46.0490196 C4.78806071,46.0490196 5.48221269,46.1988002 6.0834557,46.498366 C6.68469872,46.7979318 7.1520215,47.2200408 7.48543808,47.7647059 C7.81885466,48.3093709 7.98556045,48.9411729 7.98556045,49.6601307 C7.98556045,49.7690637 7.903574,49.8344225 7.73959863,49.8562092 L6.65736662,49.9215686 L6.5917768,49.9215686 C6.53711834,49.9215686 6.49339223,49.9106755 6.46059716,49.8888889 C6.42780209,49.8671023 6.4114048,49.845316 6.4114048,49.8235294 L6.4114048,49.7254902 C6.4114048,49.028319 6.19277425,48.4673224 5.75550661,48.0424837 C5.31823896,47.6176449 4.73340226,47.4052288 4.00097895,47.4052288 C3.26855565,47.4052288 2.68098606,47.6176449 2.23825257,48.0424837 C1.79551908,48.4673224 1.57415565,49.028319 1.57415565,49.7254902 L1.57415565,54.0718954 C1.57415565,54.7690667 1.79551908,55.3300632 2.23825257,55.754902 C2.68098606,56.1797407 3.26855565,56.3921569 4.00097895,56.3921569 C4.73340226,56.3921569 5.31823896,56.1797407 5.75550661,55.754902 C6.19277425,55.3300632 6.4114048,54.7690667 6.4114048,54.0718954 C6.4114048,54.0065356 6.43326785,53.9575165 6.47699462,53.9248366 C6.52072138,53.8921567 6.58084478,53.8812636 6.65736662,53.8921569 L7.73959863,53.9575163 C7.903574,53.9793029 7.98556045,54.0065358 7.98556045,54.0392157 L7.98556045,54.120915 C7.98556045,54.8398729 7.81885466,55.4743981 7.48543808,56.0245098 C7.1520215,56.5746215 6.68469872,57.0021771 6.0834557,57.3071895 C5.48221269,57.612202 4.78806071,57.7647059 4.00097895,57.7647059 Z M13.4951052,57.748366 C12.6752284,57.748366 11.967412,57.5441197 11.3716349,57.1356209 C10.7758577,56.7271221 10.3577268,56.1579557 10.1172296,55.4281046 C9.92045912,54.8398663 9.82207538,54.175385 9.82207538,53.4346405 C9.82207538,52.6612162 9.91499336,52.0076279 10.1008321,51.4738562 C10.3413293,50.7548984 10.7621931,50.1911785 11.3634361,49.7826797 C11.9646791,49.374181 12.6806942,49.1699346 13.5115027,49.1699346 C14.2985845,49.1699346 14.9845378,49.374181 15.5693833,49.7826797 C16.1542287,50.1911785 16.5723597,50.7494518 16.8237885,51.4575163 C17.020559,52.0130747 17.1189427,52.6666629 17.1189427,53.4183007 C17.1189427,54.1808317 17.020559,54.8507596 16.8237885,55.4281046 C16.5832913,56.1579557 16.1678933,56.7271221 15.577582,57.1356209 C14.9872707,57.5441197 14.2931187,57.748366 13.4951052,57.748366 Z M13.4951052,56.3921569 C13.9323729,56.3921569 14.3149763,56.2696091 14.6429271,56.0245098 C14.9708778,55.7794105 15.2059056,55.4335534 15.3480176,54.9869281 C15.4682662,54.5729827 15.5283896,54.0610052 15.5283896,53.4509804 C15.5283896,52.8409556 15.473732,52.3344247 15.3644151,51.9313725 C15.2223031,51.4847472 14.9872753,51.1388901 14.6593245,50.8937908 C14.3313738,50.6486916 13.932373,50.5261438 13.4623103,50.5261438 C13.014111,50.5261438 12.6260418,50.6486916 12.298091,50.8937908 C11.9701403,51.1388901 11.7351125,51.4847472 11.5930005,51.9313725 C11.4727519,52.3126381 11.4126285,52.819169 11.4126285,53.4509804 C11.4126285,54.0827918 11.4727519,54.5947693 11.5930005,54.9869281 C11.7241808,55.4335534 11.9564757,55.7794105 12.2898923,56.0245098 C12.6233089,56.2696091 13.0250425,56.3921569 13.4951052,56.3921569 Z M22.8908468,49.1862745 C23.7872455,49.1862745 24.4977947,49.4449865 25.0225159,49.9624183 C25.5472371,50.4798501 25.8095937,51.1797342 25.8095937,52.0620915 L25.8095937,57.372549 C25.8095937,57.4488021 25.7877307,57.5087144 25.7440039,57.5522876 C25.7002772,57.5958608 25.6401538,57.6176471 25.5636319,57.6176471 L24.4813999,57.6176471 C24.4048781,57.6176471 24.3447547,57.5958608 24.3010279,57.5522876 C24.2573011,57.5087144 24.2354381,57.4488021 24.2354381,57.372549 L24.2354381,52.372549 C24.2354381,51.827884 24.0769309,51.3867119 23.7599119,51.0490196 C23.4428929,50.7113273 23.0220291,50.5424837 22.4973079,50.5424837 C22.0272452,50.5424837 21.6309773,50.6813712 21.3084924,50.9591503 C20.9860075,51.2369295 20.7974387,51.6100194 20.7427802,52.0784314 L20.7427802,57.372549 C20.7427802,57.4488021 20.7209172,57.5087144 20.6771904,57.5522876 C20.6334636,57.5958608 20.5733402,57.6176471 20.4968184,57.6176471 L19.4145864,57.6176471 C19.3380646,57.6176471 19.2779412,57.5958608 19.2342144,57.5522876 C19.1904876,57.5087144 19.1686246,57.4488021 19.1686246,57.372549 L19.1686246,49.5457516 C19.1686246,49.4694985 19.1904876,49.4095863 19.2342144,49.3660131 C19.2779412,49.3224399 19.3380646,49.3006536 19.4145864,49.3006536 L20.4968184,49.3006536 C20.5733402,49.3006536 20.6334636,49.3224399 20.6771904,49.3660131 C20.7209172,49.4095863 20.7427802,49.4694985 20.7427802,49.5457516 L20.7427802,50.003268 C20.7427802,50.0359479 20.7537118,50.0577342 20.7755751,50.0686275 C20.7974385,50.0795208 20.8138358,50.0740742 20.8247675,50.0522876 C21.2838985,49.4749426 21.9725847,49.1862745 22.8908468,49.1862745 Z M30.9911894,57.7156863 C30.3462197,57.7156863 29.7750474,57.617648 29.2776554,57.4215686 C28.7802635,57.2254892 28.3949271,56.9558841 28.1216349,56.6127451 C27.8483426,56.2696061 27.7116985,55.8910696 27.7116985,55.4771242 L27.7116985,55.379085 C27.7116985,55.3028319 27.7335615,55.2429196 27.7772883,55.1993464 C27.8210151,55.1557732 27.8811385,55.1339869 27.9576603,55.1339869 L28.9743025,55.1339869 C29.0508243,55.1339869 29.1109477,55.1448801 29.1546745,55.1666667 C29.1984013,55.1884533 29.2202643,55.2156861 29.2202643,55.248366 L29.2202643,55.379085 C29.2202643,55.6840974 29.3869701,55.9509792 29.7203867,56.1797386 C30.0538033,56.4084979 30.4719342,56.5228758 30.974792,56.5228758 C31.4776498,56.5228758 31.8821163,56.4166677 32.1882036,56.2042484 C32.494291,55.991829 32.6473324,55.7222239 32.6473324,55.3954248 C32.6473324,55.0795191 32.5052225,54.8425934 32.2209985,54.6846405 C31.9367746,54.5266877 31.4776504,54.3605673 30.8436123,54.1862745 C30.2205059,54.0119817 29.6985255,53.8349682 29.2776554,53.6552288 C28.8567853,53.4754893 28.5015107,53.2195006 28.2118209,52.8872549 C27.922131,52.5550092 27.7772883,52.1274536 27.7772883,51.6045752 C27.7772883,50.874724 28.0642409,50.2946645 28.6381547,49.8643791 C29.2120685,49.4340937 29.9745425,49.2189542 30.9255996,49.2189542 C31.5596377,49.2189542 32.1198785,49.3197158 32.6063387,49.5212418 C33.092799,49.7227679 33.4672038,50.0032662 33.7295644,50.3627451 C33.991925,50.722224 34.1231033,51.1252701 34.1231033,51.5718954 C34.1231033,51.6372552 34.1012402,51.6889976 34.0575135,51.7271242 C34.0137867,51.7652507 33.9536633,51.7843137 33.8771415,51.7843137 L32.8932942,51.7843137 C32.8167723,51.7843137 32.7566489,51.7734206 32.7129222,51.751634 C32.6691954,51.7298474 32.6473324,51.7026145 32.6473324,51.6699346 L32.6473324,51.5718954 C32.6473324,51.2559897 32.4915581,50.9918311 32.1800049,50.7794118 C31.8684517,50.5669924 31.444855,50.4607843 30.9092022,50.4607843 C30.4282077,50.4607843 30.0374056,50.553376 29.7367841,50.7385621 C29.4361626,50.9237482 29.2858541,51.1742904 29.2858541,51.4901961 C29.2858541,51.8061018 29.4306969,52.0457508 29.7203867,52.2091503 C30.0100765,52.3725498 30.4773993,52.54684 31.1223691,52.7320261 C31.7564072,52.906319 32.2838533,53.0778859 32.7047234,53.246732 C33.1255936,53.4155782 33.4836011,53.6661203 33.7787567,53.998366 C34.0739124,54.3306117 34.221488,54.7636139 34.221488,55.2973856 C34.221488,56.0381301 33.9290697,56.6263595 33.3442242,57.0620915 C32.7593787,57.4978235 31.9750416,57.7156863 30.9911894,57.7156863 Z M39.5670582,56.4084967 C40.4525252,56.3976034 41.0865538,56.0544696 41.469163,55.379085 C41.5238215,55.2810453 41.5839449,55.2320261 41.649535,55.2320261 C41.7041935,55.2320261 41.7533853,55.2483658 41.7971121,55.2810458 L42.4694077,55.6895425 C42.5568613,55.744009 42.6005874,55.8148144 42.6005874,55.9019608 L42.5677925,56.0326797 C42.2726368,56.5664515 41.8545059,56.9858373 41.3133872,57.2908497 C40.7722685,57.5958621 40.1409728,57.748366 39.4194812,57.748366 C38.6433311,57.748366 37.9874395,57.5767991 37.4517866,57.2336601 C36.9161337,56.8905212 36.5116672,56.3976067 36.2383749,55.754902 C35.9650827,55.0904106 35.8284386,54.3115513 35.8284386,53.4183007 C35.8284386,52.6230897 35.888562,52.0185206 36.0088106,51.6045752 C36.205581,50.8529374 36.599116,50.2592614 37.1894273,49.8235294 C37.7797386,49.3877974 38.4957537,49.1699346 39.3374939,49.1699346 C40.3760045,49.1699346 41.1685403,49.4395398 41.7151248,49.9787582 C42.2617094,50.5179766 42.616984,51.2995592 42.7809594,52.3235294 C42.8356178,52.7265815 42.8738782,53.2167727 42.8957416,53.7941176 C42.8957416,53.9575172 42.8137551,54.0392157 42.6497797,54.0392157 L37.468184,54.0392157 C37.4135256,54.0392157 37.3861968,54.0664485 37.3861968,54.120915 C37.4080602,54.5348605 37.4463205,54.8289752 37.500979,55.003268 C37.6212276,55.439 37.8617212,55.7821338 38.222467,56.0326797 C38.5832128,56.2832257 39.0314054,56.4084967 39.5670582,56.4084967 Z M39.3374939,50.5261438 C38.8564995,50.5261438 38.4656974,50.6405217 38.1650759,50.869281 C37.8644544,51.0980404 37.6594882,51.4139413 37.5501713,51.8169935 C37.4736495,52.0566461 37.4244576,52.3616539 37.4025942,52.7320261 C37.4025942,52.7864926 37.429923,52.8137255 37.4845815,52.8137255 L41.2068037,52.8137255 C41.2614622,52.8137255 41.288791,52.7864926 41.288791,52.7320261 C41.2669276,52.3725472 41.234133,52.1056654 41.1904063,51.9313725 C41.0810894,51.5065338 40.8651917,51.1661233 40.5427068,50.9101307 C40.2202219,50.6541382 39.8184883,50.5261438 39.3374939,50.5261438 Z M45.7325012,48.0915033 C45.4154822,48.0915033 45.1585913,47.993465 44.9618209,47.7973856 C44.7650504,47.6013062 44.6666667,47.3562106 44.6666667,47.0620915 C44.6666667,46.7679724 44.7705162,46.5228768 44.9782183,46.3267974 C45.1859204,46.130718 45.4373456,46.0326797 45.7325012,46.0326797 C46.0276569,46.0326797 46.2818149,46.130718 46.4949829,46.3267974 C46.7081508,46.5228768 46.8147332,46.7679724 46.8147332,47.0620915 C46.8147332,47.3562106 46.7163495,47.6013062 46.5195791,47.7973856 C46.3228086,47.993465 46.060452,48.0915033 45.7325012,48.0915033 Z M43.2564856,61 C43.0925102,61 43.0105237,60.9183015 43.0105237,60.754902 L43.0105237,59.9052288 C43.0105237,59.7418292 43.0925102,59.6601307 43.2564856,59.6601307 C43.8467969,59.6492374 44.2758593,59.5185198 44.5436858,59.2679739 C44.8115122,59.0174279 44.9454234,58.625275 44.9454234,58.0915033 L44.9454234,49.5457516 C44.9454234,49.4694985 44.9672865,49.4095863 45.0110132,49.3660131 C45.05474,49.3224399 45.1148634,49.3006536 45.1913852,49.3006536 L46.2736172,49.3006536 C46.3501391,49.3006536 46.4102625,49.3224399 46.4539892,49.3660131 C46.497716,49.4095863 46.5195791,49.4694985 46.5195791,49.5457516 L46.5195791,58.0751634 C46.5195791,58.7832279 46.4129967,59.3496711 46.1998287,59.7745098 C45.9866607,60.1993485 45.6450505,60.5098029 45.1749878,60.7058824 C44.704925,60.9019618 44.0654307,61 43.2564856,61 Z M52.324278,56.4084967 C53.209745,56.3976034 53.8437736,56.0544696 54.2263828,55.379085 C54.2810412,55.2810453 54.3411646,55.2320261 54.4067548,55.2320261 C54.4614132,55.2320261 54.5106051,55.2483658 54.5543319,55.2810458 L55.2266275,55.6895425 C55.314081,55.744009 55.3578071,55.8148144 55.3578071,55.9019608 L55.3250122,56.0326797 C55.0298566,56.5664515 54.6117257,56.9858373 54.070607,57.2908497 C53.5294882,57.5958621 52.8981925,57.748366 52.1767009,57.748366 C51.4005509,57.748366 50.7446592,57.5767991 50.2090064,57.2336601 C49.6733535,56.8905212 49.268887,56.3976067 48.9955947,55.754902 C48.7223024,55.0904106 48.5856583,54.3115513 48.5856583,53.4183007 C48.5856583,52.6230897 48.6457817,52.0185206 48.7660303,51.6045752 C48.9628008,50.8529374 49.3563358,50.2592614 49.9466471,49.8235294 C50.5369584,49.3877974 51.2529734,49.1699346 52.0947137,49.1699346 C53.1332243,49.1699346 53.92576,49.4395398 54.4723446,49.9787582 C55.0189291,50.5179766 55.3742038,51.2995592 55.5381791,52.3235294 C55.5928376,52.7265815 55.6310979,53.2167727 55.6529613,53.7941176 C55.6529613,53.9575172 55.5709749,54.0392157 55.4069995,54.0392157 L50.2254038,54.0392157 C50.1707454,54.0392157 50.1434165,54.0664485 50.1434165,54.120915 C50.1652799,54.5348605 50.2035403,54.8289752 50.2581987,55.003268 C50.3784473,55.439 50.6189409,55.7821338 50.9796867,56.0326797 C51.3404325,56.2832257 51.7886252,56.4084967 52.324278,56.4084967 Z M52.0947137,50.5261438 C51.6137192,50.5261438 51.2229172,50.6405217 50.9222956,50.869281 C50.6216741,51.0980404 50.416708,51.4139413 50.3073911,51.8169935 C50.2308693,52.0566461 50.1816774,52.3616539 50.159814,52.7320261 C50.159814,52.7864926 50.1871428,52.8137255 50.2418013,52.8137255 L53.9640235,52.8137255 C54.018682,52.8137255 54.0460108,52.7864926 54.0460108,52.7320261 C54.0241474,52.3725472 53.9913528,52.1056654 53.947626,51.9313725 C53.8383091,51.5065338 53.6224115,51.1661233 53.2999266,50.9101307 C52.9774417,50.6541382 52.5757081,50.5261438 52.0947137,50.5261438 Z M61.2936858,49.2189542 C61.6216365,49.2189542 61.9167877,49.2788665 62.1791483,49.3986928 C62.2993969,49.4640526 62.343123,49.5675374 62.3103279,49.7091503 L62.0807636,50.7712418 C62.0698319,50.8801748 62.0151743,50.9346405 61.916789,50.9346405 C61.8621306,50.9346405 61.8184045,50.929194 61.7856094,50.9183007 C61.621634,50.8638342 61.4357981,50.8366013 61.2280959,50.8366013 C61.118779,50.8366013 61.0367926,50.8420479 60.9821341,50.8529412 C60.4683446,50.8747278 60.044748,51.0517413 59.7113314,51.3839869 C59.3779148,51.7162326 59.211209,52.1492348 59.211209,52.6830065 L59.211209,57.372549 C59.211209,57.4488021 59.189346,57.5087144 59.1456192,57.5522876 C59.1018924,57.5958608 59.041769,57.6176471 58.9652472,57.6176471 L57.8830152,57.6176471 C57.8064933,57.6176471 57.7463699,57.5958608 57.7026432,57.5522876 C57.6589164,57.5087144 57.6370534,57.4488021 57.6370534,57.372549 L57.6370534,49.5457516 C57.6370534,49.4694985 57.6589164,49.4095863 57.7026432,49.3660131 C57.7463699,49.3224399 57.8064933,49.3006536 57.8830152,49.3006536 L58.9652472,49.3006536 C59.041769,49.3006536 59.1018924,49.3224399 59.1456192,49.3660131 C59.189346,49.4095863 59.211209,49.4694985 59.211209,49.5457516 L59.211209,50.2973856 C59.211209,50.3409588 59.2194077,50.3654684 59.2358052,50.370915 C59.2522027,50.3763617 59.2713329,50.3627453 59.2931963,50.3300654 C59.7851224,49.5893209 60.4519455,49.2189542 61.2936858,49.2189542 Z M67.1475771,57.748366 C66.3277003,57.748366 65.6198839,57.5441197 65.0241067,57.1356209 C64.4283295,56.7271221 64.0101986,56.1579557 63.7697014,55.4281046 C63.572931,54.8398663 63.4745472,54.175385 63.4745472,53.4346405 C63.4745472,52.6612162 63.5674652,52.0076279 63.753304,51.4738562 C63.9938012,50.7548984 64.414665,50.1911785 65.015908,49.7826797 C65.617151,49.374181 66.333166,49.1699346 67.1639745,49.1699346 C67.9510563,49.1699346 68.6370096,49.374181 69.2218551,49.7826797 C69.8067006,50.1911785 70.2248315,50.7494518 70.4762604,51.4575163 C70.6730308,52.0130747 70.7714146,52.6666629 70.7714146,53.4183007 C70.7714146,54.1808317 70.6730308,54.8507596 70.4762604,55.4281046 C70.2357632,56.1579557 69.8203652,56.7271221 69.2300538,57.1356209 C68.6397425,57.5441197 67.9455905,57.748366 67.1475771,57.748366 Z M67.1475771,56.3921569 C67.5848447,56.3921569 67.9674482,56.2696091 68.2953989,56.0245098 C68.6233497,55.7794105 68.8583775,55.4335534 69.0004895,54.9869281 C69.1207381,54.5729827 69.1808615,54.0610052 69.1808615,53.4509804 C69.1808615,52.8409556 69.1262038,52.3344247 69.0168869,51.9313725 C68.8747749,51.4847472 68.6397471,51.1388901 68.3117964,50.8937908 C67.9838456,50.6486916 67.5848449,50.5261438 67.1147822,50.5261438 C66.6665828,50.5261438 66.2785136,50.6486916 65.9505629,50.8937908 C65.6226122,51.1388901 65.3875843,51.4847472 65.2454723,51.9313725 C65.1252237,52.3126381 65.0651003,52.819169 65.0651003,53.4509804 C65.0651003,54.0827918 65.1252237,54.5947693 65.2454723,54.9869281 C65.3766526,55.4335534 65.6089476,55.7794105 65.9423642,56.0245098 C66.2757808,56.2696091 66.6775144,56.3921569 67.1475771,56.3921569 Z M76.5433186,57.6176471 C76.4667968,57.6176471 76.4066734,57.5958608 76.3629466,57.5522876 C76.3192199,57.5087144 76.2973568,57.4488021 76.2973568,57.372549 L76.2973568,46.4248366 C76.2973568,46.3485835 76.3192199,46.2886712 76.3629466,46.245098 C76.4066734,46.2015248 76.4667968,46.1797386 76.5433186,46.1797386 L77.6255507,46.1797386 C77.7020725,46.1797386 77.7621959,46.2015248 77.8059227,46.245098 C77.8496494,46.2886712 77.8715125,46.3485835 77.8715125,46.4248366 L77.8715125,56.1797386 C77.8715125,56.2342051 77.8988413,56.2614379 77.9534998,56.2614379 L83.5122369,56.2614379 C83.5887587,56.2614379 83.6488821,56.2832242 83.6926089,56.3267974 C83.7363357,56.3703706 83.7581987,56.4302828 83.7581987,56.5065359 L83.7581987,57.372549 C83.7581987,57.4488021 83.7363357,57.5087144 83.6926089,57.5522876 C83.6488821,57.5958608 83.5887587,57.6176471 83.5122369,57.6176471 L76.5433186,57.6176471 Z M88.9561919,56.4084967 C89.8416589,56.3976034 90.4756874,56.0544696 90.8582966,55.379085 C90.9129551,55.2810453 90.9730785,55.2320261 91.0386686,55.2320261 C91.0933271,55.2320261 91.142519,55.2483658 91.1862457,55.2810458 L91.8585414,55.6895425 C91.9459949,55.744009 91.989721,55.8148144 91.989721,55.9019608 L91.9569261,56.0326797 C91.6617704,56.5664515 91.2436395,56.9858373 90.7025208,57.2908497 C90.1614021,57.5958621 89.5301064,57.748366 88.8086148,57.748366 C88.0324647,57.748366 87.3765731,57.5767991 86.8409202,57.2336601 C86.3052673,56.8905212 85.9008008,56.3976067 85.6275086,55.754902 C85.3542163,55.0904106 85.2175722,54.3115513 85.2175722,53.4183007 C85.2175722,52.6230897 85.2776956,52.0185206 85.3979442,51.6045752 C85.5947146,50.8529374 85.9882496,50.2592614 86.5785609,49.8235294 C87.1688723,49.3877974 87.8848873,49.1699346 88.7266275,49.1699346 C89.7651382,49.1699346 90.5576739,49.4395398 91.1042584,49.9787582 C91.650843,50.5179766 92.0061176,51.2995592 92.170093,52.3235294 C92.2247515,52.7265815 92.2630118,53.2167727 92.2848752,53.7941176 C92.2848752,53.9575172 92.2028887,54.0392157 92.0389134,54.0392157 L86.8573177,54.0392157 C86.8026592,54.0392157 86.7753304,54.0664485 86.7753304,54.120915 C86.7971938,54.5348605 86.8354541,54.8289752 86.8901126,55.003268 C87.0103612,55.439 87.2508548,55.7821338 87.6116006,56.0326797 C87.9723464,56.2832257 88.420539,56.4084967 88.9561919,56.4084967 Z M88.7266275,50.5261438 C88.2456331,50.5261438 87.854831,50.6405217 87.5542095,50.869281 C87.253588,51.0980404 87.0486219,51.4139413 86.9393049,51.8169935 C86.8627831,52.0566461 86.8135912,52.3616539 86.7917279,52.7320261 C86.7917279,52.7864926 86.8190567,52.8137255 86.8737151,52.8137255 L90.5959373,52.8137255 C90.6505958,52.8137255 90.6779246,52.7864926 90.6779246,52.7320261 C90.6560612,52.3725472 90.6232667,52.1056654 90.5795399,51.9313725 C90.470223,51.5065338 90.2543253,51.1661233 89.9318404,50.9101307 C89.6093555,50.6541382 89.2076219,50.5261438 88.7266275,50.5261438 Z M99.4013705,49.5457516 C99.4013705,49.4694985 99.4232336,49.4095863 99.4669604,49.3660131 C99.5106871,49.3224399 99.5708105,49.3006536 99.6473324,49.3006536 L100.729564,49.3006536 C100.806086,49.3006536 100.86621,49.3224399 100.909936,49.3660131 C100.953663,49.4095863 100.975526,49.4694985 100.975526,49.5457516 L100.975526,57.1928105 C100.975526,58.5000065 100.601121,59.4395396 99.8523005,60.0114379 C99.1034797,60.5833362 98.1059778,60.869281 96.8597651,60.869281 C96.684858,60.869281 96.4334329,60.8583879 96.1054821,60.8366013 C95.9524385,60.8366013 95.8759178,60.7494562 95.8759178,60.5751634 L95.9087127,59.6111111 C95.9087127,59.534858 95.9360415,59.4749458 95.9907,59.4313725 C96.0453584,59.3877993 96.1109476,59.3714596 96.1874694,59.3823529 C96.3405131,59.3932462 96.5536779,59.3986928 96.8269701,59.3986928 C97.7343005,59.3986928 98.3901921,59.2271259 98.7946647,58.8839869 C99.1991373,58.540848 99.4013705,57.9607884 99.4013705,57.1437908 L99.4013705,56.8660131 C99.4013705,56.8333332 99.390439,56.8142702 99.3685756,56.8088235 C99.3467122,56.8033769 99.3248492,56.8115467 99.3029858,56.8333333 C98.8329231,57.3562118 98.1660999,57.6176471 97.3024963,57.6176471 C96.5919364,57.6176471 95.9497092,57.4324637 95.3757954,57.0620915 C94.8018816,56.6917193 94.4056138,56.1470624 94.1869799,55.4281046 C94.0448679,54.9487993 93.973813,54.284318 93.973813,53.4346405 C93.973813,52.5304966 94.0557995,51.8333358 94.2197748,51.3431373 C94.427477,50.6895392 94.796416,50.1639453 95.326603,49.7663399 C95.8567901,49.3687344 96.48262,49.1699346 97.2041116,49.1699346 C98.1005103,49.1699346 98.800128,49.4368165 99.3029858,49.9705882 C99.3248492,50.0032681 99.3467122,50.0141613 99.3685756,50.003268 C99.390439,49.9923747 99.4013705,49.9705884 99.4013705,49.9379085 L99.4013705,49.5457516 Z M99.3029858,54.9542484 C99.3357809,54.7799556 99.3603768,54.5947722 99.3767744,54.3986928 C99.3931719,54.2026134 99.4013705,53.8758193 99.4013705,53.4183007 C99.4013705,52.960782 99.3931719,52.6367112 99.3767744,52.4460784 C99.3603768,52.2554457 99.3303151,52.0729856 99.2865884,51.8986928 C99.1991348,51.4956407 99.0023673,51.1661233 98.69628,50.9101307 C98.3901926,50.6541382 98.0075892,50.5261438 97.5484581,50.5261438 C97.0893271,50.5261438 96.7067237,50.6541382 96.4006363,50.9101307 C96.094549,51.1661233 95.8759184,51.4956407 95.7447381,51.8986928 C95.6244895,52.2254918 95.5643661,52.7320227 95.5643661,53.4183007 C95.5643661,54.1699384 95.6190238,54.6819158 95.7283407,54.9542484 C95.8376576,55.3573005 96.0535552,55.6868179 96.3760401,55.9428105 C96.698525,56.198803 97.0893271,56.3267974 97.5484581,56.3267974 C98.0294526,56.3267974 98.4202547,56.198803 98.7208762,55.9428105 C99.0214977,55.6868179 99.2155323,55.3573005 99.3029858,54.9542484 Z M106.239109,49.1699346 C106.905942,49.1699346 107.488046,49.2870359 107.985438,49.5212418 C108.48283,49.7554478 108.865433,50.0822419 109.13326,50.501634 C109.401086,50.9210261 109.534998,51.3976008 109.534998,51.9313725 L109.534998,57.372549 C109.534998,57.4488021 109.513134,57.5087144 109.469408,57.5522876 C109.425681,57.5958608 109.365558,57.6176471 109.289036,57.6176471 L108.206804,57.6176471 C108.130282,57.6176471 108.070158,57.5958608 108.026432,57.5522876 C107.982705,57.5087144 107.960842,57.4488021 107.960842,57.372549 L107.960842,56.9150327 C107.960842,56.8823528 107.94991,56.8605665 107.928047,56.8496732 C107.906184,56.8387799 107.884321,56.8442265 107.862457,56.8660131 C107.55637,57.1492389 107.192897,57.3671016 106.772026,57.5196078 C106.351156,57.6721141 105.894765,57.748366 105.402839,57.748366 C104.604826,57.748366 103.948934,57.5441197 103.435144,57.1356209 C102.921355,56.7271221 102.664464,56.1089366 102.664464,55.2810458 C102.664464,54.4313683 102.962348,53.7641636 103.558125,53.2794118 C104.153902,52.7946599 104.987431,52.5522876 106.058737,52.5522876 L107.878855,52.5522876 C107.933513,52.5522876 107.960842,52.5250547 107.960842,52.4705882 L107.960842,52.0457516 C107.960842,51.5664464 107.821465,51.1933565 107.542707,50.9264706 C107.263949,50.6595847 106.840352,50.5261438 106.271904,50.5261438 C105.823705,50.5261438 105.460231,50.6078423 105.181473,50.7712418 C104.902715,50.9346413 104.719612,51.1633972 104.632159,51.4575163 C104.588432,51.5991292 104.495514,51.6644881 104.353402,51.6535948 L103.172785,51.5065359 C103.096263,51.4956426 103.03614,51.4711331 102.992413,51.4330065 C102.948686,51.39488 102.932289,51.3485842 102.943221,51.2941176 C103.041606,50.6731995 103.394148,50.1639453 104.000857,49.7663399 C104.607565,49.3687344 105.353642,49.1699346 106.239109,49.1699346 Z M105.796378,56.4248366 C106.375758,56.4248366 106.881341,56.2723327 107.313142,55.9673203 C107.744944,55.6623078 107.960842,55.2756015 107.960842,54.8071895 L107.960842,53.8594771 C107.960842,53.8050106 107.933513,53.7777778 107.878855,53.7777778 L106.353891,53.7777778 C105.708922,53.7777778 105.19514,53.9030489 104.812531,54.1535948 C104.429921,54.4041407 104.23862,54.7527211 104.23862,55.1993464 C104.23862,55.6023985 104.383462,55.9074064 104.673152,56.1143791 C104.962842,56.3213518 105.337247,56.4248366 105.796378,56.4248366 Z M111.912628,57.6176471 C111.836107,57.6176471 111.775983,57.5958608 111.732256,57.5522876 C111.68853,57.5087144 111.666667,57.4488021 111.666667,57.372549 L111.666667,46.4248366 C111.666667,46.3485835 111.68853,46.2886712 111.732256,46.245098 C111.775983,46.2015248 111.836107,46.1797386 111.912628,46.1797386 L112.99486,46.1797386 C113.071382,46.1797386 113.131506,46.2015248 113.175233,46.245098 C113.218959,46.2886712 113.240822,46.3485835 113.240822,46.4248366 L113.240822,57.372549 C113.240822,57.4488021 113.218959,57.5087144 113.175233,57.5522876 C113.131506,57.5958608 113.071382,57.6176471 112.99486,57.6176471 L111.912628,57.6176471 Z M126.063632,57.6176471 C125.92152,57.6176471 125.828602,57.5522882 125.784875,57.4215686 L125.210964,55.5915033 C125.189101,55.5479301 125.161772,55.5261438 125.128977,55.5261438 L120.554087,55.5261438 C120.521292,55.5261438 120.493963,55.5479301 120.4721,55.5915033 L119.898189,57.4215686 C119.854462,57.5522882 119.761544,57.6176471 119.619432,57.6176471 L118.455213,57.6176471 C118.269374,57.6176471 118.203785,57.5250554 118.258443,57.3398693 L121.800294,46.375817 C121.84402,46.2450974 121.936938,46.1797386 122.07905,46.1797386 L123.587616,46.1797386 C123.729728,46.1797386 123.822646,46.2450974 123.866373,46.375817 L127.441018,57.3398693 C127.45195,57.3616559 127.457416,57.3943353 127.457416,57.4379085 C127.457416,57.5577348 127.386361,57.6176471 127.244249,57.6176471 L126.063632,57.6176471 Z M120.898434,54.1862745 C120.887502,54.2516343 120.909365,54.2843137 120.964023,54.2843137 L124.719041,54.2843137 C124.784631,54.2843137 124.806494,54.2516343 124.78463,54.1862745 L122.882526,48.0915033 C122.871594,48.0479301 122.855197,48.0261438 122.833333,48.0261438 C122.81147,48.0261438 122.795073,48.0479301 122.784141,48.0915033 L120.898434,54.1862745 Z M134.13118,49.5457516 C134.13118,49.4694985 134.153043,49.4095863 134.196769,49.3660131 C134.240496,49.3224399 134.30062,49.3006536 134.377141,49.3006536 L135.442976,49.3006536 C135.519498,49.3006536 135.579621,49.3224399 135.623348,49.3660131 C135.667075,49.4095863 135.688938,49.4694985 135.688938,49.5457516 L135.688938,57.372549 C135.688938,57.4488021 135.667075,57.5087144 135.623348,57.5522876 C135.579621,57.5958608 135.519498,57.6176471 135.442976,57.6176471 L134.377141,57.6176471 C134.30062,57.6176471 134.240496,57.5958608 134.196769,57.5522876 C134.153043,57.5087144 134.13118,57.4488021 134.13118,57.372549 L134.13118,56.8823529 C134.13118,56.849673 134.120248,56.83061 134.098385,56.8251634 C134.076521,56.8197167 134.054658,56.8278866 134.032795,56.8496732 C133.595527,57.4379114 132.928704,57.7320261 132.032305,57.7320261 C131.496653,57.7320261 131.002001,57.6285413 130.548336,57.4215686 C130.094671,57.2145959 129.731197,56.9095881 129.457905,56.5065359 C129.184613,56.1034838 129.047969,55.6132926 129.047969,55.0359477 L129.047969,49.5457516 C129.047969,49.4694985 129.069832,49.4095863 129.113558,49.3660131 C129.157285,49.3224399 129.217409,49.3006536 129.29393,49.3006536 L130.359765,49.3006536 C130.436287,49.3006536 130.49641,49.3224399 130.540137,49.3660131 C130.583864,49.4095863 130.605727,49.4694985 130.605727,49.5457516 L130.605727,54.5457516 C130.605727,55.1122033 130.756035,55.5588219 131.056657,55.8856209 C131.357278,56.2124199 131.780875,56.375817 132.32746,56.375817 C132.874044,56.375817 133.311305,56.2096967 133.639256,55.877451 C133.967207,55.5452053 134.13118,55.10131 134.13118,54.5457516 L134.13118,49.5457516 Z M142.100343,50.3464052 C142.100343,50.4226583 142.07848,50.4825706 142.034753,50.5261438 C141.991026,50.569717 141.930903,50.5915033 141.854381,50.5915033 L140.18184,50.5915033 C140.127182,50.5915033 140.099853,50.6187361 140.099853,50.6732026 L140.099853,54.9379085 C140.099853,55.4063204 140.20097,55.7385611 140.403206,55.9346405 C140.605442,56.1307199 140.930655,56.2287582 141.378855,56.2287582 L141.772394,56.2287582 C141.848915,56.2287582 141.909039,56.2505444 141.952766,56.2941176 C141.996492,56.3376908 142.018355,56.3976031 142.018355,56.4738562 L142.018355,57.3235294 C142.018355,57.4760356 141.936369,57.5631807 141.772394,57.5849673 L141.100098,57.6013072 C140.258358,57.6013072 139.629795,57.4542498 139.214391,57.1601307 C138.798986,56.8660116 138.591287,56.3159082 138.591287,55.5098039 L138.591287,50.6732026 C138.591287,50.6187361 138.563959,50.5915033 138.5093,50.5915033 L137.60744,50.5915033 C137.530918,50.5915033 137.470795,50.569717 137.427068,50.5261438 C137.383341,50.4825706 137.361478,50.4226583 137.361478,50.3464052 L137.361478,49.5457516 C137.361478,49.4694985 137.383341,49.4095863 137.427068,49.3660131 C137.470795,49.3224399 137.530918,49.3006536 137.60744,49.3006536 L138.5093,49.3006536 C138.563959,49.3006536 138.591287,49.2734208 138.591287,49.2189542 L138.591287,47.3888889 C138.591287,47.3126358 138.61315,47.2527235 138.656877,47.2091503 C138.700604,47.1655771 138.760727,47.1437908 138.837249,47.1437908 L139.853891,47.1437908 C139.930413,47.1437908 139.990537,47.1655771 140.034263,47.2091503 C140.07799,47.2527235 140.099853,47.3126358 140.099853,47.3888889 L140.099853,49.2189542 C140.099853,49.2734208 140.127182,49.3006536 140.18184,49.3006536 L141.854381,49.3006536 C141.930903,49.3006536 141.991026,49.3224399 142.034753,49.3660131 C142.07848,49.4095863 142.100343,49.4694985 142.100343,49.5457516 L142.100343,50.3464052 Z M147.46231,57.748366 C146.642433,57.748366 145.934617,57.5441197 145.33884,57.1356209 C144.743063,56.7271221 144.324932,56.1579557 144.084435,55.4281046 C143.887664,54.8398663 143.78928,54.175385 143.78928,53.4346405 C143.78928,52.6612162 143.882198,52.0076279 144.068037,51.4738562 C144.308534,50.7548984 144.729398,50.1911785 145.330641,49.7826797 C145.931884,49.374181 146.647899,49.1699346 147.478708,49.1699346 C148.26579,49.1699346 148.951743,49.374181 149.536588,49.7826797 C150.121434,50.1911785 150.539565,50.7494518 150.790994,51.4575163 C150.987764,52.0130747 151.086148,52.6666629 151.086148,53.4183007 C151.086148,54.1808317 150.987764,54.8507596 150.790994,55.4281046 C150.550496,56.1579557 150.135098,56.7271221 149.544787,57.1356209 C148.954476,57.5441197 148.260324,57.748366 147.46231,57.748366 Z M147.46231,56.3921569 C147.899578,56.3921569 148.282181,56.2696091 148.610132,56.0245098 C148.938083,55.7794105 149.173111,55.4335534 149.315223,54.9869281 C149.435471,54.5729827 149.495595,54.0610052 149.495595,53.4509804 C149.495595,52.8409556 149.440937,52.3344247 149.33162,51.9313725 C149.189508,51.4847472 148.95448,51.1388901 148.62653,50.8937908 C148.298579,50.6486916 147.899578,50.5261438 147.429515,50.5261438 C146.981316,50.5261438 146.593247,50.6486916 146.265296,50.8937908 C145.937345,51.1388901 145.702318,51.4847472 145.560206,51.9313725 C145.439957,52.3126381 145.379834,52.819169 145.379834,53.4509804 C145.379834,54.0827918 145.439957,54.5947693 145.560206,54.9869281 C145.691386,55.4335534 145.923681,55.7794105 146.257097,56.0245098 C146.590514,56.2696091 146.992248,56.3921569 147.46231,56.3921569 Z M161.810083,49.1862745 C162.640892,49.1862745 163.296783,49.4340934 163.777778,49.9297386 C164.258772,50.4253837 164.499266,51.1143747 164.499266,51.996732 L164.499266,57.372549 C164.499266,57.4488021 164.477403,57.5087144 164.433676,57.5522876 C164.389949,57.5958608 164.329826,57.6176471 164.253304,57.6176471 L163.187469,57.6176471 C163.110948,57.6176471 163.050824,57.5958608 163.007097,57.5522876 C162.963371,57.5087144 162.941508,57.4488021 162.941508,57.372549 L162.941508,52.3235294 C162.941508,51.7788644 162.791199,51.3458622 162.490578,51.0245098 C162.189956,50.7031574 161.788222,50.5424837 161.285365,50.5424837 C160.782507,50.5424837 160.372575,50.7004342 160.055556,51.0163399 C159.738537,51.3322456 159.580029,51.7570779 159.580029,52.2908497 L159.580029,57.372549 C159.580029,57.4488021 159.558166,57.5087144 159.51444,57.5522876 C159.470713,57.5958608 159.410589,57.6176471 159.334068,57.6176471 L158.268233,57.6176471 C158.191711,57.6176471 158.131588,57.5958608 158.087861,57.5522876 C158.044134,57.5087144 158.022271,57.4488021 158.022271,57.372549 L158.022271,52.3235294 C158.022271,51.7788644 157.871963,51.3458622 157.571341,51.0245098 C157.27072,50.7031574 156.868986,50.5424837 156.366128,50.5424837 C155.86327,50.5424837 155.461537,50.7004342 155.160915,51.0163399 C154.860294,51.3322456 154.709985,51.7570779 154.709985,52.2908497 L154.709985,57.372549 C154.709985,57.4488021 154.688122,57.5087144 154.644395,57.5522876 C154.600669,57.5958608 154.540545,57.6176471 154.464023,57.6176471 L153.381791,57.6176471 C153.30527,57.6176471 153.245146,57.5958608 153.201419,57.5522876 C153.157693,57.5087144 153.13583,57.4488021 153.13583,57.372549 L153.13583,49.5457516 C153.13583,49.4694985 153.157693,49.4095863 153.201419,49.3660131 C153.245146,49.3224399 153.30527,49.3006536 153.381791,49.3006536 L154.464023,49.3006536 C154.540545,49.3006536 154.600669,49.3224399 154.644395,49.3660131 C154.688122,49.4095863 154.709985,49.4694985 154.709985,49.5457516 L154.709985,49.9869281 C154.709985,50.019608 154.720917,50.0413943 154.74278,50.0522876 C154.764644,50.0631809 154.786507,50.0577343 154.80837,50.0359477 C155.300296,49.4694961 155.994448,49.1862745 156.890847,49.1862745 C157.437431,49.1862745 157.91022,49.2924826 158.309227,49.504902 C158.708233,49.7173213 159.017049,50.0250525 159.235683,50.4281046 C159.268478,50.4716778 159.306738,50.4716778 159.350465,50.4281046 C159.601894,50.0032658 159.943504,49.6900882 160.375306,49.4885621 C160.807108,49.287036 161.285362,49.1862745 161.810083,49.1862745 Z M169.746451,49.1699346 C170.413284,49.1699346 170.995388,49.2870359 171.49278,49.5212418 C171.990172,49.7554478 172.372776,50.0822419 172.640602,50.501634 C172.908428,50.9210261 173.04234,51.3976008 173.04234,51.9313725 L173.04234,57.372549 C173.04234,57.4488021 173.020477,57.5087144 172.97675,57.5522876 C172.933023,57.5958608 172.8729,57.6176471 172.796378,57.6176471 L171.714146,57.6176471 C171.637624,57.6176471 171.577501,57.5958608 171.533774,57.5522876 C171.490047,57.5087144 171.468184,57.4488021 171.468184,57.372549 L171.468184,56.9150327 C171.468184,56.8823528 171.457253,56.8605665 171.435389,56.8496732 C171.413526,56.8387799 171.391663,56.8442265 171.369799,56.8660131 C171.063712,57.1492389 170.700239,57.3671016 170.279369,57.5196078 C169.858498,57.6721141 169.402107,57.748366 168.910181,57.748366 C168.112168,57.748366 167.456276,57.5441197 166.942487,57.1356209 C166.428697,56.7271221 166.171806,56.1089366 166.171806,55.2810458 C166.171806,54.4313683 166.46969,53.7641636 167.065467,53.2794118 C167.661245,52.7946599 168.494774,52.5522876 169.566079,52.5522876 L171.386197,52.5522876 C171.440855,52.5522876 171.468184,52.5250547 171.468184,52.4705882 L171.468184,52.0457516 C171.468184,51.5664464 171.328807,51.1933565 171.050049,50.9264706 C170.771291,50.6595847 170.347694,50.5261438 169.779246,50.5261438 C169.331047,50.5261438 168.967574,50.6078423 168.688815,50.7712418 C168.410057,50.9346413 168.226954,51.1633972 168.139501,51.4575163 C168.095774,51.5991292 168.002856,51.6644881 167.860744,51.6535948 L166.680127,51.5065359 C166.603605,51.4956426 166.543482,51.4711331 166.499755,51.4330065 C166.456028,51.39488 166.439631,51.3485842 166.450563,51.2941176 C166.548948,50.6731995 166.90149,50.1639453 167.508199,49.7663399 C168.114908,49.3687344 168.860984,49.1699346 169.746451,49.1699346 Z M169.30372,56.4248366 C169.8831,56.4248366 170.388683,56.2723327 170.820485,55.9673203 C171.252286,55.6623078 171.468184,55.2756015 171.468184,54.8071895 L171.468184,53.8594771 C171.468184,53.8050106 171.440855,53.7777778 171.386197,53.7777778 L169.861233,53.7777778 C169.216264,53.7777778 168.702482,53.9030489 168.319873,54.1535948 C167.937264,54.4041407 167.745962,54.7527211 167.745962,55.1993464 C167.745962,55.6023985 167.890805,55.9074064 168.180494,56.1143791 C168.470184,56.3213518 168.844589,56.4248366 169.30372,56.4248366 Z M169.156143,48.0751634 C169.024963,48.0751634 168.959373,48.0206977 168.959373,47.9117647 L168.992168,47.7810458 L169.861233,46.1797386 C169.915892,46.0599123 170.014276,46 170.156388,46 L171.17303,46 C171.23862,46 171.290545,46.0136164 171.328806,46.0408497 C171.367067,46.0680829 171.386197,46.1034856 171.386197,46.1470588 C171.386197,46.190632 171.369799,46.2396511 171.337004,46.2941176 L170.287567,47.9117647 C170.221977,48.0206977 170.123593,48.0751634 169.992413,48.0751634 L169.156143,48.0751634 Z M179.273372,50.3464052 C179.273372,50.4226583 179.251509,50.4825706 179.207783,50.5261438 C179.164056,50.569717 179.103933,50.5915033 179.027411,50.5915033 L177.35487,50.5915033 C177.300212,50.5915033 177.272883,50.6187361 177.272883,50.6732026 L177.272883,54.9379085 C177.272883,55.4063204 177.374,55.7385611 177.576236,55.9346405 C177.778472,56.1307199 178.103685,56.2287582 178.551884,56.2287582 L178.945423,56.2287582 C179.021945,56.2287582 179.082069,56.2505444 179.125795,56.2941176 C179.169522,56.3376908 179.191385,56.3976031 179.191385,56.4738562 L179.191385,57.3235294 C179.191385,57.4760356 179.109399,57.5631807 178.945423,57.5849673 L178.273128,57.6013072 C177.431388,57.6013072 176.802825,57.4542498 176.38742,57.1601307 C175.972016,56.8660116 175.764317,56.3159082 175.764317,55.5098039 L175.764317,50.6732026 C175.764317,50.6187361 175.736988,50.5915033 175.68233,50.5915033 L174.78047,50.5915033 C174.703948,50.5915033 174.643825,50.569717 174.600098,50.5261438 C174.556371,50.4825706 174.534508,50.4226583 174.534508,50.3464052 L174.534508,49.5457516 C174.534508,49.4694985 174.556371,49.4095863 174.600098,49.3660131 C174.643825,49.3224399 174.703948,49.3006536 174.78047,49.3006536 L175.68233,49.3006536 C175.736988,49.3006536 175.764317,49.2734208 175.764317,49.2189542 L175.764317,47.3888889 C175.764317,47.3126358 175.78618,47.2527235 175.829907,47.2091503 C175.873634,47.1655771 175.933757,47.1437908 176.010279,47.1437908 L177.026921,47.1437908 C177.103443,47.1437908 177.163566,47.1655771 177.207293,47.2091503 C177.25102,47.2527235 177.272883,47.3126358 177.272883,47.3888889 L177.272883,49.2189542 C177.272883,49.2734208 177.300212,49.3006536 177.35487,49.3006536 L179.027411,49.3006536 C179.103933,49.3006536 179.164056,49.3224399 179.207783,49.3660131 C179.251509,49.4095863 179.273372,49.4694985 179.273372,49.5457516 L179.273372,50.3464052 Z M182.12653,48.0588235 C181.809511,48.0588235 181.549887,47.9635086 181.347651,47.7728758 C181.145414,47.5822431 181.044298,47.3344242 181.044298,47.0294118 C181.044298,46.7243993 181.145414,46.4765805 181.347651,46.2859477 C181.549887,46.095315 181.809511,46 182.12653,46 C182.443549,46 182.70044,46.095315 182.89721,46.2859477 C183.09398,46.4765805 183.192364,46.7243993 183.192364,47.0294118 C183.192364,47.3344242 183.09398,47.5822431 182.89721,47.7728758 C182.70044,47.9635086 182.443549,48.0588235 182.12653,48.0588235 Z M181.585414,57.6176471 C181.508892,57.6176471 181.448768,57.5958608 181.405042,57.5522876 C181.361315,57.5087144 181.339452,57.4488021 181.339452,57.372549 L181.339452,49.5457516 C181.339452,49.4694985 181.361315,49.4095863 181.405042,49.3660131 C181.448768,49.3224399 181.508892,49.3006536 181.585414,49.3006536 L182.667646,49.3006536 C182.744167,49.3006536 182.804291,49.3224399 182.848018,49.3660131 C182.891744,49.4095863 182.913607,49.4694985 182.913607,49.5457516 L182.913607,57.372549 C182.913607,57.4488021 182.891744,57.5087144 182.848018,57.5522876 C182.804291,57.5958608 182.744167,57.6176471 182.667646,57.6176471 L181.585414,57.6176471 Z M188.669114,57.748366 C187.838306,57.748366 187.127756,57.5386731 186.537445,57.119281 C185.947134,56.699889 185.542667,56.1307225 185.324033,55.4117647 C185.160058,54.9106729 185.078071,54.2516381 185.078071,53.4346405 C185.078071,52.6830028 185.160058,52.023968 185.324033,51.4575163 C185.542667,50.7603451 185.949866,50.2047951 186.545644,49.7908497 C187.141421,49.3769042 187.849237,49.1699346 188.669114,49.1699346 C189.488991,49.1699346 190.205006,49.3769042 190.817181,49.7908497 C191.429355,50.2047951 191.828356,50.7276657 192.014195,51.3594771 C192.068853,51.50109 192.107114,51.653594 192.128977,51.8169935 L192.128977,51.8496732 C192.128977,51.9803928 192.057922,52.0566448 191.91581,52.0784314 L190.849976,52.2254902 L190.800783,52.2254902 C190.680535,52.2254902 190.604014,52.1655779 190.571219,52.0457516 L190.522026,51.8333333 C190.434573,51.4629611 190.221408,51.1525067 189.882526,50.9019608 C189.543643,50.6514149 189.133711,50.5261438 188.652717,50.5261438 C188.182654,50.5261438 187.783653,50.6514149 187.455702,50.9019608 C187.127752,51.1525067 186.914587,51.4847474 186.816202,51.8986928 C186.717816,52.2908516 186.668625,52.8082757 186.668625,53.4509804 C186.668625,54.0827918 186.717816,54.5947693 186.816202,54.9869281 C186.925519,55.4226601 187.141416,55.765794 187.463901,56.0163399 C187.786386,56.2668858 188.182654,56.3921569 188.652717,56.3921569 C189.122779,56.3921569 189.527246,56.2696091 189.866128,56.0245098 C190.205011,55.7794105 190.423641,55.4662328 190.522026,55.0849673 L190.538424,55.0196078 L190.538424,55.003268 C190.549356,54.9488015 190.58215,54.8970591 190.636809,54.8480392 C190.691467,54.7990194 190.75159,54.7799564 190.817181,54.7908497 L191.883015,54.9705882 C192.036059,55.0032681 192.107114,55.0904132 192.096182,55.2320261 C192.08525,55.2755993 192.057922,55.3790842 192.014195,55.5424837 C191.828356,56.206975 191.429355,56.7407387 190.817181,57.1437908 C190.205006,57.546843 189.488991,57.748366 188.669114,57.748366 Z M197.376163,57.748366 C196.556286,57.748366 195.848469,57.5441197 195.252692,57.1356209 C194.656915,56.7271221 194.238784,56.1579557 193.998287,55.4281046 C193.801516,54.8398663 193.703133,54.175385 193.703133,53.4346405 C193.703133,52.6612162 193.796051,52.0076279 193.981889,51.4738562 C194.222387,50.7548984 194.64325,50.1911785 195.244493,49.7826797 C195.845736,49.374181 196.561751,49.1699346 197.39256,49.1699346 C198.179642,49.1699346 198.865595,49.374181 199.450441,49.7826797 C200.035286,50.1911785 200.453417,50.7494518 200.704846,51.4575163 C200.901616,52.0130747 201,52.6666629 201,53.4183007 C201,54.1808317 200.901616,54.8507596 200.704846,55.4281046 C200.464349,56.1579557 200.048951,56.7271221 199.458639,57.1356209 C198.868328,57.5441197 198.174176,57.748366 197.376163,57.748366 Z M197.376163,56.3921569 C197.81343,56.3921569 198.196034,56.2696091 198.523984,56.0245098 C198.851935,55.7794105 199.086963,55.4335534 199.229075,54.9869281 C199.349323,54.5729827 199.409447,54.0610052 199.409447,53.4509804 C199.409447,52.8409556 199.354789,52.3344247 199.245472,51.9313725 C199.10336,51.4847472 198.868333,51.1388901 198.540382,50.8937908 C198.212431,50.6486916 197.81343,50.5261438 197.343368,50.5261438 C196.895168,50.5261438 196.507099,50.6486916 196.179148,50.8937908 C195.851198,51.1388901 195.61617,51.4847472 195.474058,51.9313725 C195.353809,52.3126381 195.293686,52.819169 195.293686,53.4509804 C195.293686,54.0827918 195.353809,54.5947693 195.474058,54.9869281 C195.605238,55.4335534 195.837533,55.7794105 196.17095,56.0245098 C196.504366,56.2696091 196.9061,56.3921569 197.376163,56.3921569 Z" id="Consejero-Legal-Auto-Copy"></path>
            </g>
        </g>
    </g>
</svg>