<?xml version="1.0" encoding="UTF-8"?>
<svg width="80px" height="17px" viewBox="0 0 80 17" version="1.1" xmlns="http://www.w3.org/2000/svg" xmlns:xlink="http://www.w3.org/1999/xlink">
    <!-- Generator: Sketch 52.4 (67378) - http://www.bohemiancoding.com/sketch -->
    <title>Group 3 Copy</title>
    <desc>Created with Sketch.</desc>
    <g id="Page-1" stroke="none" stroke-width="1" fill="none" fill-rule="evenodd">
        <g id="01---Colega-Copy" transform="translate(-680.000000, -1892.000000)" fill="#0D58AF">
            <g id="Group-14" transform="translate(0.000000, 1592.000000)">
                <g id="Group-3-Copy" transform="translate(680.000000, 300.000000)">
                    <g id="Group-2-Copy-2">
                        <path d="M2.66021728,15.6322546 C1.81065701,15.1844383 1.15483704,14.5584547 0.692757372,13.7535658 C0.230677703,12.9497836 0,12.0157879 0,10.9523165 L0,5.3280543 C0,4.26605843 0.230677703,3.33243163 0.692757372,2.52791167 C1.15483704,1.72302282 1.81065701,1.10072792 2.66021728,0.660289199 C3.50977755,0.220219359 4.49332644,0 5.61086394,0 C6.71391619,0 7.69022245,0.212841826 8.53942059,0.637418847 C9.38898086,1.06273362 10.0448008,1.66252705 10.5068805,2.43643026 C10.9682359,3.21033346 11.2,4.10670372 11.2,5.12369664 C11.2,5.27530494 11.0877393,5.36678635 10.8643042,5.39629648 L8.96420072,5.51064824 L8.87475427,5.51064824 C8.69586136,5.51064824 8.60677703,5.47302282 8.60677703,5.39629648 L8.60677703,5.26054987 C8.60677703,4.36454849 8.33481635,3.64339465 7.79089498,3.09708833 C7.24661148,2.55041314 6.52017589,2.27707555 5.61086394,2.27707555 C4.70155199,2.27707555 3.97185722,2.55041314 3.42069322,3.09708833 C2.86880497,3.64339465 2.59286084,4.36454849 2.59286084,5.26054987 L2.59286084,11.0666683 C2.59286084,11.9475457 2.86880497,12.6605843 3.42069322,13.2076284 C3.97185722,13.7535658 4.70155199,14.0269034 5.61086394,14.0269034 C6.52017589,14.0269034 7.24661148,13.7576235 7.79089498,13.2186947 C8.33481635,12.6797659 8.60677703,11.9623008 8.60677703,11.0666683 C8.60677703,10.9906797 8.64045525,10.9264952 8.70744956,10.8730081 C8.77408174,10.8198898 8.85990688,10.8010771 8.96420072,10.8158322 L10.8425763,10.9073136 C11.0804966,10.9375615 11.2,10.9759247 11.2,11.0209276 L11.2,11.1352794 C11.2,12.1670273 10.9682359,13.074095 10.5068805,13.8564824 C10.0448008,14.6385009 9.38898086,15.2416142 8.53942059,15.6665601 C7.69022245,16.091506 6.71391619,16.3043478 5.61086394,16.3043478 C4.49332644,16.3043478 3.50977755,16.0804397 2.66021728,15.6322546" id="Fill-1-Copy"></path>
                        <path d="M21.1449243,13.1477301 C21.7016984,12.5576806 21.9811549,11.7781826 21.9811549,10.809236 L21.9811549,5.51791926 C21.9811549,4.53389032 21.7016984,3.74666718 21.1449243,3.15588195 C20.5874373,2.56546459 19.8463787,2.27080771 18.9224616,2.27080771 C18.0128025,2.27080771 17.2792294,2.56546459 16.7217424,3.15588195 C16.1638989,3.74666718 15.8855118,4.53389032 15.8855118,5.51791926 L15.8855118,10.809236 C15.8855118,11.7781826 16.1638989,12.5576806 16.7217424,13.1477301 C17.2792294,13.7385154 18.0128025,14.033908 18.9224616,14.033908 C19.8463787,14.033908 20.5874373,13.7385154 21.1449243,13.1477301 M15.9960112,15.6120329 C15.1448097,15.150367 14.4882297,14.4955739 14.0266276,13.6472858 C13.5643126,12.8001012 13.3333333,11.8230617 13.3333333,10.7183742 L13.3333333,5.54072666 C13.3333333,4.45038581 13.5675207,3.48548567 14.0376776,2.64492263 C14.5067651,1.80546318 15.1633451,1.15434871 16.0067046,0.692314936 C16.8504206,0.230649025 17.822102,0 18.9224616,0 C20.0370792,0 21.016246,0.230649025 21.859962,0.692314936 C22.7029651,1.15434871 23.3591887,1.80546318 23.8289891,2.64492263 C24.2984331,3.48548567 24.5333333,4.45038581 24.5333333,5.54072666 L24.5333333,10.7183742 C24.5333333,11.8230617 24.2984331,12.8001012 23.8289891,13.6472858 C23.3591887,14.4955739 22.7029651,15.150367 21.859962,15.6120329 C21.016246,16.0736988 20.0370792,16.3043478 18.9224616,16.3043478 C17.822102,16.3043478 16.8461432,16.0736988 15.9960112,15.6120329" id="Fill-4-Copy"></path>
                        <path d="M26.6666667,0.372782923 C26.6666667,0.124512515 26.7877655,0 27.0310708,0 L28.9461309,0 C29.1886977,0 29.310535,0.124512515 29.310535,0.372782923 L29.310535,13.8356042 C29.310535,13.9288 29.3555779,13.9748319 29.4471404,13.9748319 L36.9681908,13.9748319 C37.2111269,13.9748319 37.3333333,14.0997217 37.3333333,14.3483694 L37.3333333,15.9319422 C37.3333333,16.1805899 37.2111269,16.3043478 36.9681908,16.3043478 L27.0310708,16.3043478 C26.7877655,16.3043478 26.6666667,16.1805899 26.6666667,15.9319422 L26.6666667,0.372782923 Z" id="Fill-6-Copy"></path>
                        <path d="M49.7735247,2.32951596 L42.2120756,2.32951596 C42.1216678,2.32951596 42.077193,2.37592517 42.077193,2.46949821 L42.077193,6.77800852 C42.077193,6.87120425 42.1216678,6.91799078 42.2120756,6.91799078 L47.2526771,6.91799078 C47.492185,6.91799078 47.6124858,7.04250329 47.6124858,7.29039639 L47.6124858,8.8743465 C47.6124858,9.12299422 47.492185,9.24675211 47.2526771,9.24675211 L42.2120756,9.24675211 C42.1216678,9.24675211 42.077193,9.29353863 42.077193,9.38673436 L42.077193,13.8356042 C42.077193,13.9288 42.1216678,13.9748319 42.2120756,13.9748319 L49.7735247,13.9748319 C50.0130326,13.9748319 50.1333333,14.0993444 50.1333333,14.3483694 L50.1333333,15.9319422 C50.1333333,16.1805899 50.0130326,16.3043478 49.7735247,16.3043478 L39.8264753,16.3043478 C39.5862383,16.3043478 39.4666667,16.1805899 39.4666667,15.9319422 L39.4666667,0.372405612 C39.4666667,0.124512515 39.5862383,0 39.8264753,0 L49.7735247,0 C50.0130326,0 50.1333333,0.124512515 50.1333333,0.372405612 L50.1333333,1.95711034 C50.1333333,2.20575806 50.0130326,2.32951596 49.7735247,2.32951596" id="Fill-8-Copy"></path>
                        <path d="M54.9323138,15.6322546 C54.0810195,15.1844383 53.4238609,14.5503394 52.9608381,13.7310643 C52.4978152,12.9114204 52.2666667,11.9700472 52.2666667,10.9073136 L52.2666667,5.39629648 C52.2666667,4.31880779 52.4978152,3.3741147 52.9608381,2.56147944 C53.4238609,1.74958194 54.0810195,1.11954063 54.9323138,0.671724375 C55.7836082,0.223908125 56.7691646,0 57.8889832,0 C58.9939241,0 59.9689573,0.220219359 60.8122685,0.660289199 C61.6559425,1.10072792 62.3094724,1.70015247 62.7724953,2.45930061 C63.2351552,3.21844875 63.4666667,4.07608696 63.4666667,5.03221523 L63.4666667,5.12369664 C63.4666667,5.36678635 63.3472823,5.48777789 63.1081505,5.48777789 L61.2491646,5.48777789 C61.144295,5.48777789 61.0586576,5.46896518 60.9918894,5.43097088 C60.9247584,5.39297659 60.8906485,5.34354712 60.8906485,5.28268247 L60.8906485,5.10045741 C60.8906485,4.28118237 60.6184956,3.60576923 60.073464,3.0738491 C59.5280696,2.54266673 58.8001512,2.27707555 57.8889832,2.27707555 C56.9778152,2.27707555 56.2462682,2.55447078 55.6939792,3.10852351 C55.1413273,3.66220736 54.8648199,4.39516526 54.8648199,5.30555282 L54.8648199,10.9980572 C54.8648199,11.9091826 55.156205,12.6417716 55.7389751,13.1958243 C56.3213824,13.749877 57.0747017,14.0269034 58.0007473,14.0269034 C58.8974005,14.0269034 59.6028209,13.7878713 60.1177342,13.3094383 C60.6330104,12.8310053 60.8906485,12.1751426 60.8906485,11.3400059 L60.8906485,9.95118532 C60.8906485,9.85970392 60.8456526,9.81470096 60.7563864,9.81470096 L58.1132372,9.81470096 C57.8737426,9.81470096 57.7547211,9.69260279 57.7547211,9.45025084 L57.7547211,7.9470785 C57.7547211,7.70435766 57.8737426,7.58299725 58.1132372,7.58299725 L63.1081505,7.58299725 C63.3472823,7.58299725 63.4666667,7.70435766 63.4666667,7.9470785 L63.4666667,10.7704604 C63.4666667,12.5170913 62.9626395,13.8752951 61.9549479,14.8465473 C60.9468935,15.8181684 59.5919348,16.3043478 57.8889832,16.3043478 C56.7691646,16.3043478 55.7836082,16.0804397 54.9323138,15.6322546" id="Fill-10-Copy"></path>
                        <path d="M79.926021,15.702782 L72.4237765,0.265237504 C72.338671,0.0894951033 72.1968284,0.00288693882 72,0 C71.8035218,0.00288693882 71.661329,0.0894951033 71.5762235,0.265237504 L64.073979,15.702782 C63.9874726,15.8666157 63.9769657,16.007354 64.041758,16.1260794 C64.1065503,16.2451656 64.2329828,16.3043478 64.4200048,16.3043478 L65.9077754,16.3043478 C66.0951476,16.3043478 66.2825199,16.2451656 66.4698921,16.1260794 C66.6569141,16.007354 66.7868489,15.8590375 66.858996,15.6804082 L71.7275222,5.79336447 C71.7979182,5.62050901 71.8893278,5.53462258 72,5.53029217 C72.1110224,5.53462258 72.2020818,5.62050901 72.2724778,5.79336447 L77.141004,15.6804082 C77.2131511,15.8590375 77.3430859,16.007354 77.5301079,16.1260794 C77.7174801,16.2451656 77.9048524,16.3043478 78.0925748,16.3043478 L79.5803455,16.3043478 C79.7670172,16.3043478 79.8934497,16.2451656 79.958242,16.1260794 C80.0230343,16.007354 80.0125274,15.8666157 79.926021,15.702782" id="Fill-12-Copy"></path>
                    </g>
                </g>
            </g>
        </g>
    </g>
</svg>