<?xml version="1.0" encoding="UTF-8"?>
<svg width="56px" height="56px" viewBox="0 0 56 56" version="1.1" xmlns="http://www.w3.org/2000/svg" xmlns:xlink="http://www.w3.org/1999/xlink">
    <!-- Generator: Sketch 52.4 (67378) - http://www.bohemiancoding.com/sketch -->
    <title>Group 11</title>
    <desc>Created with Sketch.</desc>
    <defs>
        <linearGradient x1="50%" y1="-36.1322996%" x2="50%" y2="129.640193%" id="linearGradient-1">
            <stop stop-color="#1E91D8" offset="0%"></stop>
            <stop stop-color="#0D58AF" offset="100%"></stop>
        </linearGradient>
        <linearGradient x1="50%" y1="24.4700206%" x2="50%" y2="100%" id="linearGradient-2">
            <stop stop-color="#1E91D8" offset="0%"></stop>
            <stop stop-color="#0D58AF" offset="100%"></stop>
        </linearGradient>
    </defs>
    <g id="Page-1" stroke="none" stroke-width="1" fill="none" fill-rule="evenodd">
        <g id="01---Colega" transform="translate(-294.000000, -864.000000)">
            <g id="Group-7" transform="translate(200.000000, 842.000000)">
                <g id="Group-11" transform="translate(14.000000, 0.000000)">
                    <rect id="Rectangle-Copy-3" opacity="0.111676897" fill-rule="nonzero" x="0" y="0" width="215" height="100"></rect>
                    <g id="Group" transform="translate(80.000000, 22.000000)">
                        <path d="M16.4343658,36.2475661 C16.1905101,36.2475661 16.0685841,36.1251751 16.0685841,35.8803894 L16.0685841,34.3657858 C16.0685841,34.1974957 16.1295471,34.0521564 16.2514749,33.9297636 C16.967801,33.1648084 18.1642001,31.8032087 19.840708,29.8449235 L21.3038348,28.1467316 C22.706005,26.5097276 23.4070796,25.2705188 23.4070796,24.4290682 C23.4070796,23.8018049 23.1860887,23.2892927 22.7441003,22.891516 C22.3021119,22.4937393 21.7305836,22.294854 21.0294985,22.294854 C20.3284134,22.294854 19.7606954,22.4937393 19.3263274,22.891516 C18.8919595,23.2892927 18.6747788,23.8171038 18.6747788,24.4749652 L18.6747788,24.9798331 C18.6747788,25.2246187 18.5528527,25.3470097 18.3089971,25.3470097 L16.3657817,25.3470097 C16.121926,25.3470097 16,25.2246187 16,24.9798331 L16,24.0848401 C16.030482,23.2586885 16.2667136,22.5396414 16.7087021,21.9276773 C17.1506905,21.3157132 17.74889,20.8414481 18.5033186,20.5048679 C19.2577471,20.1682876 20.0997987,20 21.0294985,20 C22.0506442,20 22.9422282,20.1912359 23.7042773,20.5737135 C24.4663263,20.9561911 25.0530953,21.4801775 25.4646018,22.1456885 C25.8761083,22.8111994 26.0818584,23.5570195 26.0818584,24.3831711 C26.0818584,25.6376975 25.4188857,27.0834411 24.0929204,28.7204451 C23.605209,29.3477083 23.0260604,30.043807 22.3554572,30.8087622 C21.6848541,31.5737173 21.014261,32.3310116 20.3436578,33.0806676 L19.7035398,33.7920723 C19.6578169,33.8379696 19.6425761,33.8762168 19.6578171,33.906815 C19.6730581,33.9374132 19.71116,33.9527121 19.7721239,33.9527121 L26.0818584,33.9527121 C26.3257141,33.9527121 26.4476401,34.0751031 26.4476401,34.3198887 L26.4476401,35.8803894 C26.4476401,36.1251751 26.3257141,36.2475661 26.0818584,36.2475661 L16.4343658,36.2475661 Z M34.7418879,36.5 C33.1415849,36.5 31.8727923,36.0448585 30.935472,35.1345619 C29.9981517,34.2242653 29.5294985,32.9965307 29.5294985,31.4513213 L29.5294985,24.9798331 C29.5294985,23.4499228 29.9981517,22.2374871 30.935472,21.3424896 C31.8727923,20.447492 33.1415849,20 34.7418879,20 C36.3421909,20 37.6186039,20.447492 38.5711652,21.3424896 C39.5237265,22.2374871 40,23.4499228 40,24.9798331 L40,31.4513213 C40,32.9965307 39.5237265,34.2242653 38.5711652,35.1345619 C37.6186039,36.0448585 36.3421909,36.5 34.7418879,36.5 Z M34.7418879,34.1821975 C35.5344189,34.1821975 36.1669101,33.9488897 36.6393805,33.482267 C37.1118509,33.0156444 37.3480826,32.3845659 37.3480826,31.5890125 L37.3480826,24.8880389 C37.3480826,24.0924856 37.1118509,23.4614071 36.6393805,22.9947844 C36.1669101,22.5281618 35.5344189,22.294854 34.7418879,22.294854 C33.9645979,22.294854 33.3435372,22.5281618 32.8786873,22.9947844 C32.4138374,23.4614071 32.1814159,24.0924856 32.1814159,24.8880389 L32.1814159,31.5890125 C32.1814159,32.3845659 32.4138374,33.0156444 32.8786873,33.482267 C33.3435372,33.9488897 33.9645979,34.1821975 34.7418879,34.1821975 Z" id="20" fill="url(#linearGradient-1)"></path>
                        <path d="M28,52.7 C41.6414333,52.7 52.7,41.6414333 52.7,28 C52.7,14.3585667 41.6414333,3.3 28,3.3 C14.3585667,3.3 3.3,14.3585667 3.3,28 C3.3,41.6414333 14.3585667,52.7 28,52.7 Z M28,56 C12.536027,56 0,43.463973 0,28 C0,12.536027 12.536027,0 28,0 C43.463973,0 56,12.536027 56,28 C56,43.463973 43.463973,56 28,56 Z" id="Oval" fill="url(#linearGradient-2)"></path>
                    </g>
                </g>
            </g>
        </g>
    </g>
</svg>