<?xml version="1.0" encoding="UTF-8"?>
<svg width="62px" height="72px" viewBox="0 0 62 72" version="1.1" xmlns="http://www.w3.org/2000/svg" xmlns:xlink="http://www.w3.org/1999/xlink">
    <!-- Generator: Sketch 52.4 (67378) - http://www.bohemiancoding.com/sketch -->
    <title>Group 10</title>
    <desc>Created with Sketch.</desc>
    <defs>
        <linearGradient x1="50%" y1="24.4700206%" x2="50%" y2="100%" id="linearGradient-1">
            <stop stop-color="#1E91D8" offset="0%"></stop>
            <stop stop-color="#0D58AF" offset="100%"></stop>
        </linearGradient>
    </defs>
    <g id="Page-1" stroke="none" stroke-width="1" fill="none" fill-rule="evenodd">
        <g id="01---Colega" transform="translate(-552.000000, -895.000000)">
            <g id="Group-7" transform="translate(200.000000, 842.000000)">
                <g id="Group-10" transform="translate(275.000000, 39.000000)">
                    <rect id="Rectangle-Copy-2" opacity="0.111676897" fill-rule="nonzero" x="0" y="0" width="215" height="100"></rect>
                    <path d="M115.02887,39.3125 C114.251393,39.3125 113.623261,38.682434 113.623261,37.90625 C113.623261,37.130066 114.251393,36.5 115.02887,36.5 C115.804701,36.5 116.43448,37.130066 116.43448,37.90625 C116.43448,38.682434 115.804701,39.3125 115.02887,39.3125 Z M100.972777,39.3125 C100.195299,39.3125 99.5671676,38.682434 99.5671676,37.90625 C99.5671676,37.130066 100.195299,36.5 100.972777,36.5 C101.748607,36.5 102.378386,37.130066 102.378386,37.90625 C102.378386,38.682434 101.748607,39.3125 100.972777,39.3125 Z M104.243015,48.9782715 C103.540759,48.6470337 103.239871,47.8093262 103.570958,47.1067505 C103.901496,46.4041749 104.739371,46.1031493 105.441626,46.4343872 C106.243812,46.8128663 107.104748,47.0045777 108.000275,47.0045777 C108.876035,47.0045777 109.721048,46.8200074 110.511154,46.4569093 C111.216704,46.1322632 112.051285,46.4415283 112.375783,47.1468507 C112.699732,47.8527222 112.391156,48.6876831 111.685606,49.012329 C110.524332,49.5462647 109.28454,49.8170777 108.000275,49.8170777 C106.687457,49.8170777 105.422958,49.534729 104.243015,48.9782715 Z M139,71.0613403 L139,84.59375 C139,85.3704835 138.37077,86 137.594391,86 L78.4056093,86 C77.6292297,86 77,85.3704835 77,84.59375 L77,71.0613403 C77,63.3126831 85.8191005,57.2636109 93.3478955,56.9768676 L97.2264987,53.4903564 C92.5989691,50.0741578 89.7910449,44.5848389 89.7910449,38.75 L89.7910449,29.46875 C89.7910449,20.9147949 96.6620586,14 105.203332,14 L110.825769,14 C119.378572,14 126.336887,20.9395141 126.336887,29.46875 L126.336887,38.75 C126.336887,44.5947266 123.491078,50.0944824 118.802602,53.5167236 L122.652105,56.9768676 C130.197372,57.2641602 139,63.3286133 139,71.0613403 Z M104.88652,76.71875 L103.37,83.1875 L112.579486,83.1875 L111.105793,76.71875 L104.88652,76.71875 Z M111.226587,73.90625 L112.374135,70.5916749 L108.000824,68.4031983 L103.719206,70.5449829 L104.797572,73.90625 L111.226587,73.90625 Z M108.000275,64.1778564 L112.87708,56.3720703 C111.299064,56.8060303 109.662847,57.0307007 108.01455,57.0307007 C106.350331,57.0307007 104.702034,56.8016358 103.115782,56.3605347 L108.000275,64.1778564 Z M110.012053,66.2652587 L115.769011,69.1458741 L120.400384,58.7335816 L116.760625,55.4618531 L110.012053,66.2652587 Z M105.203332,16.8125 C98.2548996,16.8125 92.6022636,22.4896851 92.6022636,29.46875 L92.6022636,30.5102539 L95.1071032,26.8380738 C95.3442998,26.4898071 95.7253518,26.2667847 96.1448383,26.2299805 C96.5637758,26.1931762 96.9783207,26.3458863 97.2726201,26.6474609 C100.132157,29.5709228 103.440829,30.875 108.000824,30.875 C112.561367,30.875 115.86949,29.5709228 118.726831,26.6474609 C119.020032,26.3475343 119.430734,26.1942749 119.849122,26.2294312 C120.266961,26.2645874 120.647464,26.484314 120.886308,26.8287353 L123.525669,30.6311035 L123.525669,29.46875 C123.525669,22.4896851 117.828559,16.8125 110.825769,16.8125 L105.203332,16.8125 Z M92.6022636,38.75 C92.6022636,47.1935425 99.4117818,54.21875 108.01455,54.21875 C116.645321,54.21875 123.525669,47.1715699 123.525669,38.75 L123.525669,35.5623169 L119.503759,29.7681274 C116.375729,32.4350586 112.67722,33.6875 108.000824,33.6875 C103.329369,33.6875 99.6336047,32.4378051 96.5061239,29.7763672 L92.6022636,35.4996949 L92.6022636,38.75 Z M99.2393751,55.4624023 L95.5996157,58.7335816 L100.230989,69.1458741 L105.989045,66.2652587 L99.2393751,55.4624023 Z M79.8112187,71.0613403 L79.8112187,83.1875 L100.482461,83.1875 L102.315244,75.3707275 L101.174833,71.8177491 L100.173337,72.3192749 C99.8296213,72.4906617 99.4315483,72.5148316 99.0702627,72.3851929 C98.7089771,72.2555542 98.4163249,71.9836426 98.2603901,71.6331788 L93.0014347,59.8113403 C86.8502466,60.2661743 79.8112187,65.2682495 79.8112187,71.0613403 Z M136.188781,83.1875 L136.188781,71.0613403 C136.188781,65.2682495 129.149753,60.2667236 122.998565,59.8113403 L117.73961,71.6331788 C117.583675,71.9836426 117.291023,72.2555542 116.929737,72.3851929 C116.571746,72.5137329 116.172575,72.4923095 115.826663,72.3192749 L114.909723,71.8600464 L113.686953,75.3921508 L115.462633,83.1875 L136.188781,83.1875 Z M126.273745,76.71875 C127.050124,76.71875 127.679354,77.3482665 127.679354,78.125 C127.679354,78.9017335 127.050124,79.53125 126.273745,79.53125 L120.651308,79.53125 C119.874928,79.53125 119.245698,78.9017335 119.245698,78.125 C119.245698,77.3482665 119.874928,76.71875 120.651308,76.71875 L126.273745,76.71875 Z M131.818764,76.71875 C132.594594,76.71875 133.224373,77.348816 133.224373,78.125 C133.224373,78.901184 132.594594,79.53125 131.818764,79.53125 C131.042933,79.53125 130.413155,78.901184 130.413155,78.125 C130.413155,77.348816 131.042933,76.71875 131.818764,76.71875 Z" id="Combined-Shape" fill="url(#linearGradient-1)"></path>
                </g>
            </g>
        </g>
    </g>
</svg>