<?xml version="1.0" encoding="UTF-8"?>
<svg width="72px" height="72px" viewBox="0 0 72 72" version="1.1" xmlns="http://www.w3.org/2000/svg" xmlns:xlink="http://www.w3.org/1999/xlink">
    <!-- Generator: Sketch 52.4 (67378) - http://www.bohemiancoding.com/sketch -->
    <title>Group 11 Copy</title>
    <desc>Created with Sketch.</desc>
    <defs>
        <linearGradient x1="50%" y1="24.4700206%" x2="50%" y2="100%" id="linearGradient-1">
            <stop stop-color="#1E91D8" offset="0%"></stop>
            <stop stop-color="#0D58AF" offset="100%"></stop>
        </linearGradient>
    </defs>
    <g id="Page-1" stroke="none" stroke-width="1" fill="none" fill-rule="evenodd">
        <g id="01---Colega" transform="translate(-272.000000, -1165.000000)">
            <g id="Group-7" transform="translate(200.000000, 831.000000)">
                <g id="Group-11-Copy" transform="translate(0.000000, 320.000000)">
                    <rect id="Rectangle-Copy-3" opacity="0.111676897" fill-rule="nonzero" x="0" y="0" width="215" height="100"></rect>
                    <path d="M130.220321,34.9179688 C129.443768,34.9179688 128.814033,34.2883906 128.814033,33.5117188 L128.814033,18.21875 C128.814033,17.4433438 128.183172,16.8125 127.407745,16.8125 L76.2188638,16.8125 C75.4434366,16.8125 74.8125759,17.4433438 74.8125759,18.21875 L74.8125759,81.78125 C74.8125759,82.5566563 75.4434366,83.1875 76.2188638,83.1875 L127.407745,83.1875 C128.183172,83.1875 128.814033,82.5566563 128.814033,81.78125 L128.814033,71.421125 C128.814033,70.6444531 129.443768,70.014875 130.220321,70.014875 C130.996873,70.014875 131.626609,70.6444531 131.626609,71.421125 L131.626609,81.78125 C131.626609,84.1074687 129.734026,86 127.407745,86 L76.2188638,86 C73.8925823,86 72,84.1074688 72,81.78125 L72,18.21875 C72,15.8925312 73.8925823,14 76.2188638,14 L127.407745,14 C129.734026,14 131.626609,15.8925312 131.626609,18.21875 L131.626609,33.5117188 C131.626609,34.2883906 130.996873,34.9179688 130.220321,34.9179688 Z M101.813304,21.59375 C108.947262,21.59375 114.751153,27.3974844 114.751153,34.53125 C114.751153,38.2320781 113.188767,41.5744531 110.689231,43.9347031 C110.642402,43.984625 110.592619,44.0321562 110.538196,44.0753281 C108.235962,46.1816094 105.172082,47.4686094 101.813164,47.4686094 C98.4542449,47.4686094 95.3903654,46.18175 93.0881314,44.0753281 C93.0337081,44.0321562 92.9839255,43.9847656 92.9370961,43.9347031 C90.4378412,41.5744531 88.8754553,38.2320781 88.8754553,34.53125 C88.8754553,27.3974844 94.6793462,21.59375 101.813304,21.59375 Z M101.813304,44.65625 C104.109632,44.65625 106.228767,43.88675 107.929391,42.5935625 C106.693405,40.4019219 104.386952,39.03125 101.813304,39.03125 C99.2396567,39.03125 96.9332039,40.4019219 95.6972174,42.5935625 C97.3977008,43.88675 99.5169767,44.65625 101.813304,44.65625 Z M99.5632436,33.96875 C99.5632436,35.2093438 100.572677,36.21875 101.813304,36.21875 C103.053932,36.21875 104.063365,35.2093438 104.063365,33.96875 L104.063365,33.0546875 C104.063365,31.8140937 103.053932,30.8046875 101.813304,30.8046875 C100.572677,30.8046875 99.5632436,31.8140937 99.5632436,33.0546875 L99.5632436,33.96875 Z M109.961337,40.5335469 C111.202948,38.8526562 111.938577,36.7766094 111.938577,34.53125 C111.938577,28.9482969 107.396408,24.40625 101.813304,24.40625 C96.2302005,24.40625 91.6880311,28.9482969 91.6880311,34.53125 C91.6880311,36.7766094 92.4236604,38.8526562 93.665272,40.5335469 C94.7024093,38.9953906 96.1397762,37.7990937 97.8086181,37.0605312 C97.1462565,36.2045469 96.7506677,35.1322812 96.7506677,33.96875 L96.7506677,33.0546875 C96.7506677,30.2631406 99.0216821,27.9921875 101.813304,27.9921875 C104.604926,27.9921875 106.875941,30.2631406 106.875941,33.0546875 L106.875941,33.96875 C106.875941,35.1322812 106.480352,36.2045469 105.81799,37.0605312 C107.486832,37.7990937 108.924199,38.9953906 109.961337,40.5335469 Z M109.407259,75.59375 C110.183811,75.59375 110.813547,76.2233281 110.813547,77 C110.813547,77.7766719 110.183811,78.40625 109.407259,78.40625 L101.813304,78.40625 C101.036752,78.40625 100.407016,77.7766719 100.407016,77 C100.407016,76.2233281 101.036752,75.59375 101.813304,75.59375 L109.407259,75.59375 Z M109.407259,67.71875 C110.183811,67.71875 110.813547,68.3483281 110.813547,69.125 C110.813547,69.9016719 110.183811,70.53125 109.407259,70.53125 L89.4379704,70.53125 C88.6614182,70.53125 88.0316825,69.9016719 88.0316825,69.125 C88.0316825,68.3483281 88.6614182,67.71875 89.4379704,67.71875 L109.407259,67.71875 Z M109.407259,59.84375 C110.183811,59.84375 110.813547,60.4733281 110.813547,61.25 C110.813547,62.0266719 110.183811,62.65625 109.407259,62.65625 L89.4379704,62.65625 C88.6614182,62.65625 88.0316825,62.0266719 88.0316825,61.25 C88.0316825,60.4733281 88.6614182,59.84375 89.4379704,59.84375 L109.407259,59.84375 Z M84.4258196,52.3807812 C84.6875298,52.6423438 84.8380026,53.0051562 84.8380026,53.375 C84.8380026,53.7448438 84.6873891,54.1076562 84.4258196,54.3692188 C84.1629844,54.6307812 83.8015684,54.78125 83.4303084,54.78125 C83.060314,54.78125 82.6990386,54.6307812 82.4360628,54.3692188 C82.1743526,54.1076562 82.0240204,53.7448438 82.0240204,53.375 C82.0240204,53.0051562 82.1744932,52.6423438 82.4360628,52.3807812 C82.6974917,52.1192188 83.060314,51.96875 83.4303084,51.96875 C83.8015684,51.96875 84.1643907,52.1192188 84.4258196,52.3807812 Z M84.4258196,60.2557812 C84.6875298,60.5173438 84.8380026,60.8801562 84.8380026,61.25 C84.8380026,61.6198438 84.6873891,61.9826562 84.4258196,62.2442188 C84.1629844,62.5057812 83.8015684,62.65625 83.4303084,62.65625 C83.060314,62.65625 82.6990386,62.5057812 82.4360628,62.2442188 C82.1743526,61.9826562 82.0240204,61.6198438 82.0240204,61.25 C82.0240204,60.8801562 82.1744932,60.5173438 82.4360628,60.2557812 C82.6990386,59.9942188 83.060314,59.84375 83.4303084,59.84375 C83.8015684,59.84375 84.1629844,59.9942188 84.4258196,60.2557812 Z M84.4258196,68.1307812 C84.6875298,68.3923438 84.8380026,68.7551562 84.8380026,69.125 C84.8380026,69.4948438 84.6873891,69.8576562 84.4258196,70.1192188 C84.1643907,70.3807812 83.8015684,70.53125 83.4303084,70.53125 C83.060314,70.53125 82.6974917,70.3807812 82.4360628,70.1192188 C82.1743526,69.8576562 82.0240204,69.4948438 82.0240204,69.125 C82.0240204,68.7551562 82.1744932,68.3923438 82.4360628,68.1307812 C82.6990386,67.8692188 83.060314,67.71875 83.4303084,67.71875 C83.8015684,67.71875 84.1629844,67.8692188 84.4258196,68.1307812 Z M109.407259,51.96875 C110.183811,51.96875 110.813547,52.5983281 110.813547,53.375 C110.813547,54.1516719 110.183811,54.78125 109.407259,54.78125 L89.4379704,54.78125 C88.6614182,54.78125 88.0316825,54.1516719 88.0316825,53.375 C88.0316825,52.5983281 88.6614182,51.96875 89.4379704,51.96875 L109.407259,51.96875 Z M141.048035,32.32625 C143.868486,33.9546875 144.838262,37.5740938 143.20978,40.3944687 L125.512912,71.0455156 C125.416019,71.2135625 125.285234,71.3596719 125.128996,71.4747031 L116.088814,78.1324531 C115.842011,78.3142812 115.54894,78.4063906 115.254745,78.4063906 C115.012723,78.4063906 114.770138,78.3439531 114.551742,78.2179531 C114.067979,77.9385312 113.79544,77.3992344 113.857317,76.8440469 L115.103007,65.6862969 C115.124523,65.4935 115.185837,65.3071719 115.28273,65.139125 L132.979739,34.4880781 C133.768385,33.1219063 135.042201,32.1445625 136.566054,31.7361875 C138.090189,31.3279531 139.681826,31.5374844 141.048035,32.32625 Z M117.009089,73.9616563 L121.729717,70.485125 L117.659638,68.1352813 L117.009089,73.9616563 Z M123.780366,68.4213125 L137.981764,43.8245937 L132.623104,40.7308437 L118.421705,65.3275625 L123.780366,68.4213125 Z M140.77409,38.9880781 C141.187257,38.2724375 141.296948,37.4386719 141.083051,36.6404844 C140.869155,35.8422969 140.357266,35.1751719 139.641606,34.7620156 C138.926087,34.3488594 138.092439,34.2388906 137.293949,34.4529219 C136.49574,34.6668125 135.828597,35.1786875 135.41543,35.8943281 L134.029252,38.2952188 L139.387912,41.3889688 L140.77409,38.9880781 Z" id="Combined-Shape" fill="url(#linearGradient-1)"></path>
                </g>
            </g>
        </g>
    </g>
</svg>