<?xml version="1.0" encoding="UTF-8"?>
<svg width="67px" height="56px" viewBox="0 0 67 56" version="1.1" xmlns="http://www.w3.org/2000/svg" xmlns:xlink="http://www.w3.org/1999/xlink">
    <!-- Generator: Sketch 52.4 (67378) - http://www.bohemiancoding.com/sketch -->
    <title>Group 9</title>
    <desc>Created with Sketch.</desc>
    <defs>
        <linearGradient x1="50%" y1="24.4700206%" x2="50%" y2="100%" id="linearGradient-1">
            <stop stop-color="#1E91D8" offset="0%"></stop>
            <stop stop-color="#0D58AF" offset="100%"></stop>
        </linearGradient>
    </defs>
    <g id="Page-1" stroke="none" stroke-width="1" fill="none" fill-rule="evenodd">
        <g id="01---Colega" transform="translate(-825.000000, -909.000000)">
            <g id="Group-7" transform="translate(200.000000, 842.000000)">
                <g id="Group-9" transform="translate(550.000000, 39.000000)">
                    <rect id="Rectangle" opacity="0.111676897" fill-rule="nonzero" x="0" y="0" width="215" height="100"></rect>
                    <path d="M116.878409,40.816943 C117.642235,40.9219461 118.176534,41.6279608 118.071977,42.3938273 C117.96729,43.1598251 117.26379,43.6961285 116.499572,43.5908629 C113.913137,43.2355586 111.095343,43.3630061 108.349783,43.9599488 C108.250068,43.9816057 108.150615,43.9919748 108.052732,43.9919748 C107.40982,43.9919748 106.831684,43.5440052 106.689832,42.8882607 C106.52652,42.1325008 107.004941,41.3871099 107.758299,41.2233051 C110.819229,40.5581103 113.97307,40.4176686 116.878409,40.816943 Z M127.051938,48.068852 C127.727172,47.697141 128.576056,47.9446859 128.94665,48.6231372 C129.080912,48.868582 129.209023,49.1182269 129.327189,49.3649843 C129.661011,50.0620737 129.368148,50.8984235 128.673285,51.233121 C128.478435,51.3269675 128.272594,51.3713313 128.070023,51.3713313 C127.549988,51.3713313 127.051022,51.0787664 126.810764,50.577114 C126.714321,50.3753768 126.609502,50.1710145 126.499319,49.9695397 C126.128594,49.2916133 126.375918,48.4405631 127.051938,48.068852 Z M129.119908,52.7097273 C129.88308,52.605118 130.587888,53.1389276 130.693622,53.9049253 C131.260898,58.0243288 130.169792,62.1102626 127.621045,65.4098544 C127.345979,65.7659462 126.93351,65.952458 126.516723,65.952458 C126.218102,65.952458 125.917126,65.8567739 125.662866,65.6591055 C125.053454,65.1856727 124.942224,64.3061403 125.414233,63.6950222 C127.499215,60.9957858 128.391937,57.6551116 127.928172,54.2880554 C127.822699,53.5223202 128.356082,52.815518 129.119908,52.7097273 Z M137.83357,51.7998753 C140.131067,51.7998753 142.000131,53.684025 142,55.9996062 C142,57.1195957 141.568033,58.1730395 140.783532,58.9656818 C140.51069,59.2414462 140.151612,59.3795253 139.792796,59.3795253 C139.437382,59.3795253 139.081837,59.2443338 138.809649,58.9732945 C138.262396,58.4284596 138.258993,57.542102 138.802059,56.9933295 C139.060114,56.7322655 139.208247,56.370136 139.208247,55.9996062 C139.208247,55.2277021 138.591376,54.5997834 137.833177,54.5997834 C137.075109,54.5997834 136.4585,55.2277021 136.4585,55.9996062 C136.4585,60.6768388 134.943279,65.1115142 132.076282,68.8245557 C130.403769,70.990245 128.059555,76.1182035 126.8071,81.1998294 L129.862404,81.1998294 C130.633296,81.1998294 131.25828,81.826698 131.25828,82.5997834 C131.25828,83.3730001 130.633165,83.9998687 129.862404,83.9998687 L125.066016,83.9998687 L116.931407,83.9998687 C116.555449,83.9998687 116.195454,83.8476142 115.93282,83.5778875 C115.670185,83.3081607 115.527156,82.9434061 115.536054,82.5665762 C115.57348,80.9908732 115.384127,79.3676562 115.21715,77.9354137 C115.199222,77.7810591 115.181425,77.6288046 115.164152,77.4781251 C110.874976,78.5299939 107.424084,78.7708448 104.075263,78.2501606 L103.211198,81.1996981 L103.744188,81.1996981 C104.515212,81.1996981 105.140065,81.8265667 105.140065,82.5996522 C105.140065,83.3727376 104.515081,83.9996062 103.744188,83.9996062 L101.345929,83.9996062 L93.6685428,83.9996062 L88.8722864,83.9996062 C88.101394,83.9996062 87.4765407,83.3727376 87.4765407,82.5996522 C87.4765407,81.8265667 88.101394,81.1996981 88.8722864,81.1996981 L92.4372873,81.1996981 C92.6750587,79.2773535 92.9197657,77.145134 93.0600469,75.3462993 C88.7012532,74.256367 85.3533479,73.1359837 81.7454251,68.4248876 L80.1939568,68.4248876 C79.143418,68.4248876 77.731184,67.9262541 76.9689284,65.550296 L75.3471886,60.4934772 C74.8030755,58.7963643 74.8988645,57.3764596 75.6320694,56.2727456 C76.1382333,55.510948 77.2030357,54.5638199 79.4019961,54.3782269 C80.8339898,54.2569483 81.2779955,54.1070563 81.9763918,51.5239796 C83.1995341,47.0009703 85.7638537,43.6760466 89.8041357,41.3817285 L90.7393874,32.0598143 C90.7916003,31.5396551 91.1283014,31.0920793 91.6126118,30.8988736 C92.0967913,30.7061928 92.6479709,30.7995144 93.0418575,31.141562 L100.113758,37.2838506 C102.250298,36.4397568 104.505659,35.8260136 106.848565,35.4487899 C106.645863,34.8694352 106.534371,34.2476855 106.534371,33.5999475 C106.534371,30.5120683 109.039019,28 112.117616,28 C115.196213,28 117.70086,30.5120683 117.70086,33.5999475 C117.70086,34.23141 117.594603,34.837803 117.401585,35.4045573 C122.361154,36.1840742 126.666164,38.0825306 129.94864,40.9546283 C133.285684,43.8743713 135.389641,47.7004224 136.144306,52.1618736 C136.661201,51.9299479 137.232271,51.7998753 137.83357,51.7998753 Z M112.117747,30.8001706 C110.578448,30.8001706 109.326124,32.0562704 109.326124,33.6000788 C109.326124,35.1440183 110.578448,36.4001181 112.117747,36.4001181 C113.657045,36.4001181 114.909369,35.1440183 114.909369,33.6000788 C114.909369,32.0562704 113.657045,30.8001706 112.117747,30.8001706 Z M129.869601,67.1101173 C132.354227,63.8924281 133.667401,60.0506265 133.66727,55.9998687 C133.66727,44.1624736 124.434882,38.9598316 115.580546,37.988159 C114.628152,38.746019 113.425031,39.2002888 112.117747,39.2002888 C110.82852,39.2002888 109.640841,38.7583569 108.694728,38.0193975 C105.796586,38.3561949 102.940058,39.1039484 100.397984,40.1936182 C99.9070001,40.404412 99.3394631,40.3150281 98.9358929,39.9645802 L93.2480918,35.024446 L92.5082131,42.3997337 C92.460842,42.870279 92.179887,43.2851725 91.7611371,43.5027915 C89.4023976,44.7280466 86.101209,46.9685506 84.6710473,52.2570326 C83.8661315,55.2341335 82.8255381,56.8985642 79.6367577,57.1684222 C78.7863029,57.2400868 78.1893226,57.4734562 77.9554769,57.8254792 C77.7243793,58.173302 77.7419145,58.8161836 78.0049418,59.636258 L79.6266815,64.6928143 C79.7646073,65.1228021 79.9959666,65.6251107 80.1942185,65.6251107 L82.4448683,65.6251107 C82.8910986,65.6251107 83.3106336,65.8391859 83.5732683,66.2009216 C87.0554353,70.9975952 89.9938818,71.7163416 94.8622417,72.9069457 C95.515099,73.0666817 95.9617219,73.6701871 95.925343,74.3431258 C95.8188235,76.3106217 95.5339427,78.8845106 95.2505014,81.1998294 L100.30141,81.1998294 L101.751332,76.2506387 C101.957173,75.5482991 102.667085,75.1234302 103.381577,75.2760785 C107.077568,76.0663582 110.856524,75.7929564 116.018271,74.3611076 C116.420794,74.2499355 116.852238,74.3243565 117.19378,74.5657324 C117.535454,74.8069771 117.751241,75.1890572 117.782255,75.6068383 C117.82727,76.2169064 117.906179,76.8937828 117.989798,77.6102978 C118.119218,78.7193932 118.261069,79.9365106 118.312628,81.1999606 L123.93814,81.1999606 C125.135503,75.9956124 127.64159,69.9946842 129.869601,67.1101173 Z M91.6790883,50.3900772 C92.4478869,50.3900772 93.0749649,51.0191771 93.074834,51.790425 C93.074834,52.5614104 92.4478869,53.1902478 91.6790883,53.1902478 C90.910028,53.1902478 90.2832118,52.5614104 90.2832118,51.790425 C90.2832118,51.0193084 90.910028,50.3900772 91.6790883,50.3900772 Z M112.341778,81.1999606 C113.11267,81.1999606 113.737654,81.8268292 113.737524,82.5999147 C113.737524,83.3731314 113.112539,84 112.341778,84 L111.039204,84 C110.268442,84 109.643458,83.3730001 109.643458,82.5999147 C109.643458,81.8268292 110.268442,81.1999606 111.039204,81.1999606 L112.341778,81.1999606 Z" id="Combined-Shape" fill="url(#linearGradient-1)"></path>
                </g>
            </g>
        </g>
    </g>
</svg>