<?xml version="1.0" encoding="UTF-8"?>
<svg width="64px" height="64px" viewBox="0 0 64 64" version="1.1" xmlns="http://www.w3.org/2000/svg" xmlns:xlink="http://www.w3.org/1999/xlink">
    <!-- Generator: Sketch 52.4 (67378) - http://www.bohemiancoding.com/sketch -->
    <title>Group 8 Copy</title>
    <desc>Created with Sketch.</desc>
    <defs>
        <linearGradient x1="50%" y1="24.4700206%" x2="50%" y2="100%" id="linearGradient-1">
            <stop stop-color="#1E91D8" offset="0%"></stop>
            <stop stop-color="#0D58AF" offset="100%"></stop>
        </linearGradient>
    </defs>
    <g id="Page-1" stroke="none" stroke-width="1" fill="none" fill-rule="evenodd">
        <g id="01---Colega" transform="translate(-1100.000000, -1169.000000)">
            <g id="Group-7" transform="translate(200.000000, 831.000000)">
                <g id="Group-8-Copy" transform="translate(825.000000, 320.000000)">
                    <rect id="Rectangle-Copy" opacity="0.111676897" fill-rule="nonzero" x="0" y="0" width="215" height="100"></rect>
                    <path d="M108.582767,48.4188443 C109.07027,48.9063436 109.07027,49.6975925 108.582767,50.1863418 C108.094014,50.6738411 107.30276,50.6738411 106.814007,50.1863418 C106.326505,49.6975925 106.326505,48.9063436 106.814007,48.4188443 C107.30276,47.930095 108.094014,47.930095 108.582767,48.4188443 Z M124.491732,32.5087418 C126.934496,34.9513633 126.933996,38.9054827 124.491732,41.3477293 C122.054968,43.7844758 118.089946,43.7834758 115.652932,41.3479793 C113.216293,38.9098577 113.216418,34.9448633 115.652557,32.5087418 C118.095196,30.0662452 122.049218,30.0663702 124.491732,32.5087418 Z M122.723972,39.5798568 C124.189605,38.1143588 124.189355,35.7417372 122.723972,34.2764893 C121.258339,32.8108663 118.885825,32.8111163 117.420442,34.2764893 C115.958684,35.7381122 115.958809,38.1173588 117.420692,39.5801068 C118.883075,41.0416047 121.262339,41.0416047 122.723972,39.5798568 Z M138.633936,18.3661367 C138.879313,18.6116364 139.011689,18.9480109 138.999189,19.2948854 C138.989063,19.577385 138.718687,26.3068755 135.891171,34.3066142 C133.627908,40.7161052 130.38764,46.0589726 126.260117,50.1864668 C125.334862,51.1117155 124.353981,52.0117142 123.3356,52.872463 C125.737864,56.9535822 124.98461,60.2238276 123.878228,62.2909497 C121.330714,67.051068 114.4138,69.9974388 109.466272,69.9974388 C108.960644,69.9974388 108.504892,69.6929392 108.311516,69.2258149 C108.118015,68.7588156 108.225015,68.2211913 108.582392,67.8636918 C111.092656,65.3535704 110.935655,62.2571997 110.80278,61.2455762 L110.365027,60.8078268 C108.314766,61.6694506 106.276504,62.3631996 104.294743,62.8720739 C103.614239,63.0464486 102.857485,63.0108237 102.122231,62.7216991 C101.567603,63.9249474 100.753348,65.0859457 99.7427175,66.0965693 C96.5250743,69.3141898 88.6830302,69.9675639 88.3507783,69.9936888 C88.3179031,69.9963138 88.2850279,69.9975638 88.2522778,69.9975638 C87.9222759,69.9975638 87.6038991,69.866689 87.3685228,69.6314393 C87.1098963,69.3728147 86.9776456,69.0138152 87.0063957,68.6491907 C87.0326459,68.3169412 87.6860246,60.4752023 90.9036677,57.2574568 C91.9146734,56.2464582 93.0758049,55.4320844 94.2793117,54.8774602 C94.0061852,54.1829611 93.9441848,53.4237122 94.1279358,52.7062132 C94.6369387,50.723591 95.3309426,48.6850939 96.1924475,46.6350968 L95.754695,46.1973474 C94.7431893,46.0643476 91.6467969,45.9073478 89.1364077,48.4177193 C88.8972814,48.656719 88.5776546,48.7838438 88.2522778,48.7838438 C88.0912768,48.7838438 87.9287759,48.7527188 87.7741501,48.6885939 C87.3071474,48.4952192 87.0025207,48.0393448 87.0021457,47.5338455 C87.0021457,42.5863525 89.9485373,35.6693623 94.7086891,33.1218659 C96.7760758,32.0154925 100.046344,31.2622435 104.127367,33.6644901 C104.988497,32.6456166 105.888502,31.664868 106.813382,30.7399943 C110.940781,26.6125001 116.283686,23.3721297 122.693722,21.1088829 C130.693142,18.2815119 137.422555,18.0110122 137.705181,18.0008872 C138.053433,17.9877623 138.388435,18.1207621 138.633936,18.3661367 Z M89.7969115,44.8452243 C93.1525554,43.0618519 96.459949,43.7732259 96.6318249,43.8121008 C97.0498273,43.9063507 97.2748286,44.1892253 97.2934537,44.2007252 C98.7605869,41.1713545 100.520722,38.3026086 102.545358,35.6398623 C100.168845,34.3389892 97.9337073,34.2317393 95.8888208,35.3259878 C92.8288035,36.9637355 90.5734158,41.0873546 89.7969115,44.8452243 Z M97.9749575,64.3286968 C98.9375879,63.3661982 99.667217,62.2501998 100.078219,61.1284513 L95.8716957,56.9219573 C94.7499393,57.3329567 93.6339331,58.0627057 92.6714276,59.0252043 C90.952793,60.7438269 90.0461629,64.7755712 89.6759108,67.3240676 C92.2243001,66.9539431 96.2561978,66.0474444 97.9749575,64.3286968 Z M103.67374,60.4503273 C105.232373,60.0502029 106.831882,59.5267036 108.447266,58.8898295 L98.1103333,48.5529691 C97.4735797,50.1680918 96.9499517,51.7678396 96.5495745,53.3270874 C96.457199,53.6882118 96.5931997,54.1070863 96.9049515,54.4194608 C98.8765876,56.391208 99.7692176,57.2838318 100.13322,57.6478313 C100.331721,57.846206 100.964349,58.4788301 102.581483,60.0959528 C102.892985,60.4069524 103.311988,60.5429522 103.67374,60.4503273 Z M121.674341,61.1113264 C122.768472,59.0668293 122.661347,56.8314574 121.360464,54.4547108 C118.697449,56.4793329 115.828808,58.2394554 112.799666,59.7065783 C112.814416,59.7304533 113.078168,59.933703 113.179793,60.3379525 C113.617546,62.078325 113.353419,64.9484459 112.155287,67.2030678 C115.913059,66.4266939 120.036582,64.171197 121.674341,61.1113264 Z M124.492607,48.4187193 C128.196128,44.7153495 131.143394,39.9361063 133.264656,34.2097394 L122.790597,23.7357541 C117.064065,25.8572512 112.284788,28.804497 108.581642,32.5077418 C107.455761,33.6334902 106.367755,34.8464885 105.347249,36.1131117 C102.897485,39.1554824 100.822224,42.5044776 99.1702142,46.0777226 L110.92278,57.829956 C114.495801,56.1779583 117.844819,54.1027113 120.887587,51.6527147 C122.153344,50.6330912 123.366225,49.5449677 124.492607,48.4187193 Z M134.164036,31.5733681 C135.64242,26.8137498 136.196173,22.6726307 136.395299,20.6052586 C134.328287,20.8042583 130.187139,21.3578825 125.426987,22.8363804 L134.164036,31.5733681 Z M105.046372,69.6310643 C105.5345,70.1190636 105.534625,70.9105625 105.046622,71.3988118 L101.511602,74.9350568 C101.0236,75.4233061 100.232095,75.4233061 99.7437175,74.9353068 C99.2555897,74.4473075 99.2554647,73.6558086 99.7434675,73.1675593 L103.278487,69.6313143 C103.76649,69.14319 104.557995,69.14294 105.046372,69.6310643 Z M87.3691478,51.9538393 C87.8571505,52.4420886 87.8570255,53.2335875 87.3687728,53.7215868 L83.8325029,57.2565818 C83.3440001,57.7448311 82.5526207,57.7443311 82.0647429,57.2563318 C81.5767402,56.7680825 81.5768652,55.9765836 82.0651179,55.4885843 L85.6013878,51.9535893 C86.0897656,51.46559 86.881145,51.46559 87.3691478,51.9538393 Z M96.2078226,71.3999368 C96.6959503,71.8880611 96.6959503,72.67956 96.2076976,73.1676843 L87.7401499,81.6339224 C87.2518971,82.1221717 86.4602677,82.1219217 85.9723899,81.6337974 C85.4842622,81.1456731 85.4842622,80.3541742 85.9725149,79.8660499 L94.4400626,71.3998118 C94.9283154,70.9118125 95.7199448,70.9118125 96.2078226,71.3999368 Z M86.2077662,71.3999368 C86.695894,71.8880611 86.695894,72.67956 86.2076412,73.1676843 L77.7400936,81.6339224 C77.2518408,82.1221717 76.4602113,82.1219217 75.9723336,81.6337974 C75.4842059,81.1456731 75.4842059,80.3541742 75.9724586,79.8660499 L84.4400063,71.3998118 C84.928134,70.9118125 85.7197635,70.9118125 86.2077662,71.3999368 Z M85.6001378,60.7922018 C86.0883906,61.2804511 86.0883906,62.071825 85.6002628,62.5600743 L77.1339651,71.0275624 C76.6458374,71.5158117 75.8543329,71.5158117 75.3662052,71.0276874 C74.8779524,70.539438 74.8779524,69.7480642 75.3660802,69.2598149 L83.8323779,60.7923268 C84.3205056,60.3042025 85.1121351,60.3042025 85.6001378,60.7922018 Z M113.885422,43.1148518 C114.37355,43.6031011 114.37355,44.3946 113.885422,44.8827243 L112.117912,46.6502218 C111.629659,47.1383461 110.83828,47.1383461 110.350027,46.6502218 C109.861899,46.1619725 109.861899,45.3704736 110.350027,44.8823493 L112.117537,43.1148518 C112.605915,42.6267275 113.397169,42.6267275 113.885422,43.1148518 Z" id="Combined-Shape" fill="url(#linearGradient-1)"></path>
                </g>
            </g>
        </g>
    </g>
</svg>