<?xml version="1.0" encoding="UTF-8"?>
<svg width="64px" height="64px" viewBox="0 0 64 64" version="1.1" xmlns="http://www.w3.org/2000/svg" xmlns:xlink="http://www.w3.org/1999/xlink">
    <!-- Generator: Sketch 52.4 (67378) - http://www.bohemiancoding.com/sketch -->
    <title>Group 9 Copy</title>
    <desc>Created with Sketch.</desc>
    <defs>
        <linearGradient x1="50%" y1="24.4700206%" x2="50%" y2="100%" id="linearGradient-1">
            <stop stop-color="#1E91D8" offset="0%"></stop>
            <stop stop-color="#0D58AF" offset="100%"></stop>
        </linearGradient>
    </defs>
    <g id="Page-1" stroke="none" stroke-width="1" fill="none" fill-rule="evenodd">
        <g id="01---Colega" transform="translate(-826.000000, -1169.000000)" fill-rule="nonzero">
            <g id="Group-7" transform="translate(200.000000, 831.000000)">
                <g id="Group-9-Copy" transform="translate(550.000000, 320.000000)">
                    <rect id="Rectangle" opacity="0.111676897" x="0" y="0" width="215" height="100"></rect>
                    <path d="M138.933333,45.7333333 C139.522133,45.7333333 140,46.2112 140,46.8 L140,72.4 L140,76.6666667 C140,79.6074667 137.607467,82 134.666667,82 L89.8666667,82 C86.9258667,82 84.5333333,79.6074667 84.5333333,76.6666667 L84.5333333,72.4 L84.5333333,68.0256 C82.1024,67.5296 80.2666667,65.3749333 80.2666667,62.8 L80.2666667,58.5333333 L80.2666667,54.1589333 C77.8357333,53.6629333 76,51.5082667 76,48.9333333 L76,44.6666667 L76,19.0666667 C76,18.4778667 76.4778667,18 77.0666667,18 L130.4,18 C130.9888,18 131.466667,18.4778667 131.466667,19.0666667 L131.466667,31.8666667 L134.666667,31.8666667 C135.255467,31.8666667 135.733333,32.3445333 135.733333,32.9333333 L135.733333,45.7333333 L138.933333,45.7333333 Z M80.2666667,51.9509333 L80.2666667,45.7333333 L78.1333333,45.7333333 L78.1333333,48.9333333 C78.1333333,50.3242667 79.0250667,51.5104 80.2666667,51.9509333 Z M81.3333333,31.8666667 L101.1584,31.8666667 L100.845867,31.5541333 C100.645333,31.3546667 100.533333,31.0826667 100.533333,30.8 C100.533333,29.4112 101.428267,28.2378667 102.666667,27.7962667 L102.666667,26.5333333 L104.8,26.5333333 L104.8,27.7962667 C106.0384,28.2378667 106.933333,29.4112 106.933333,30.8 L104.8,30.8 C104.8,30.2122667 104.321067,29.7333333 103.733333,29.7333333 C103.2768,29.7333333 102.8864,30.0224 102.733867,30.4256 L104.174933,31.8666667 L129.333333,31.8666667 L129.333333,20.1333333 L78.1333333,20.1333333 L78.1333333,43.6 L80.2666667,43.6 L80.2666667,32.9333333 C80.2666667,32.3445333 80.7445333,31.8666667 81.3333333,31.8666667 Z M84.5333333,65.8176 L84.5333333,59.6 L82.4,59.6 L82.4,62.8 C82.4,64.1909333 83.2917333,65.3770667 84.5333333,65.8176 Z M85.6,45.7333333 L105.425067,45.7333333 L105.112533,45.4208 C104.912,45.2213333 104.8,44.9493333 104.8,44.6666667 C104.8,43.2778667 105.694933,42.1045333 106.933333,41.6629333 L106.933333,40.4 L109.066667,40.4 L109.066667,41.6629333 C110.305067,42.1045333 111.2,43.2778667 111.2,44.6666667 L109.066667,44.6666667 C109.066667,44.0789333 108.587733,43.6 108,43.6 C107.543467,43.6 107.153067,43.8890667 107.000533,44.2922667 L108.4416,45.7333333 L133.6,45.7333333 L133.6,34 L130.4,34 L82.4,34 L82.4,44.6666667 L82.4,53.2 L82.4,57.4666667 L84.5333333,57.4666667 L84.5333333,46.8 C84.5333333,46.2112 85.0112,45.7333333 85.6,45.7333333 Z M137.866667,76.6666667 L137.866667,73.4666667 L134.109867,73.4666667 C133.896533,73.7834667 133.661867,74.0832 133.4144,74.3722667 C133.380267,74.4106667 133.344,74.448 133.309867,74.4864 C133.096533,74.7285333 132.8704,74.9578667 132.6336,75.1765333 C132.5856,75.2213333 132.538667,75.2650667 132.4896,75.3077333 C132.2272,75.5402667 131.954133,75.76 131.6672,75.9637333 C131.6576,75.9712 131.649067,75.9786667 131.639467,75.9850667 C131.019733,76.4202667 130.347733,76.7818667 129.633067,77.0634667 C129.5936,77.0784 129.553067,77.0922667 129.5136,77.1072 C129.216,77.2202667 128.910933,77.3173333 128.599467,77.4005333 C128.5216,77.4218667 128.445867,77.4410667 128.368,77.4602667 C128.085333,77.5274667 127.797333,77.5818667 127.506133,77.6234667 C127.418667,77.6362667 127.333333,77.6522667 127.245867,77.6629333 C126.88,77.7056 126.509867,77.7333333 126.133333,77.7333333 C125.7568,77.7333333 125.386667,77.7056 125.0208,77.6629333 C124.933333,77.6533333 124.848,77.6362667 124.760533,77.6234667 C124.468267,77.5818667 124.181333,77.5285333 123.898667,77.4602667 C123.8208,77.4410667 123.744,77.4208 123.6672,77.4005333 C123.355733,77.3173333 123.051733,77.2202667 122.753067,77.1072 C122.7136,77.0922667 122.673067,77.0794667 122.6336,77.0634667 C121.918933,76.7829333 121.246933,76.4213333 120.6272,75.9850667 C120.6176,75.9776 120.609067,75.9701333 120.599467,75.9637333 C120.312533,75.76 120.039467,75.5402667 119.777067,75.3077333 C119.728,75.264 119.681067,75.2202667 119.633067,75.1765333 C119.396267,74.9578667 119.1712,74.7274667 118.9568,74.4864 C118.9216,74.448 118.8864,74.4117333 118.852267,74.3722667 C118.603733,74.0832 118.369067,73.7834667 118.1568,73.4666667 L86.6666667,73.4666667 L86.6666667,76.6666667 C86.6666667,78.4309333 88.1024,79.8666667 89.8666667,79.8666667 L134.666667,79.8666667 C136.430933,79.8666667 137.866667,78.4309333 137.866667,76.6666667 Z M118.666667,68.1333333 C118.666667,68.4352 118.690133,68.736 118.727467,69.0368 C118.736,69.104 118.7488,69.1701333 118.7584,69.2362667 C118.795733,69.4848 118.843733,69.7312 118.906667,69.9744 C118.919467,70.0234667 118.9312,70.0736 118.945067,70.1226667 C119.111467,70.7210667 119.351467,71.3013333 119.665067,71.8464 C119.674667,71.8645333 119.6864,71.8805333 119.696,71.8976 C119.8496,72.1589333 120.017067,72.4074667 120.1984,72.6453333 C120.215467,72.6677333 120.231467,72.6901333 120.248533,72.7125333 C120.638933,73.2138667 121.089067,73.6597333 121.586133,74.0426667 C121.6032,74.0554667 121.6192,74.0672 121.636267,74.08 C121.882667,74.2666667 122.139733,74.4394667 122.4064,74.5941333 C122.408533,74.5952 122.410667,74.5973333 122.4128,74.5984 C122.9536,74.9109333 123.533867,75.152 124.1376,75.3216 C124.1856,75.3354667 124.2336,75.3461333 124.2816,75.3589333 C124.523733,75.4218667 124.770133,75.4698667 125.019733,75.5082667 C125.088,75.5178667 125.1552,75.5306667 125.224533,75.5392 C125.524267,75.5765333 125.8272,75.6 126.133333,75.6 C126.439467,75.6 126.7424,75.5765333 127.0432,75.5381333 C127.111467,75.5306667 127.179733,75.5178667 127.248,75.5072 C127.496533,75.4688 127.744,75.4208 127.986133,75.3578667 C128.034133,75.3450667 128.082133,75.3333333 128.130133,75.3205333 C128.733867,75.1509333 129.314133,74.9098667 129.854933,74.5973333 C129.857067,74.5962667 129.8592,74.5941333 129.861333,74.5930667 C130.128,74.4384 130.385067,74.2656 130.631467,74.0789333 C130.648533,74.0661333 130.664533,74.0544 130.6816,74.0416 C131.1776,73.6597333 131.627733,73.2128 132.0192,72.7114667 C132.036267,72.6901333 132.052267,72.6666667 132.069333,72.6442667 C132.250667,72.4064 132.4192,72.1568 132.571733,71.8965333 C132.5824,71.8784 132.593067,71.8624 132.602667,71.8453333 C132.9152,71.3002667 133.1552,70.72 133.322667,70.1216 C133.336533,70.0725333 133.348267,70.0224 133.361067,69.9733333 C133.424,69.7301333 133.472,69.4837333 133.509333,69.2352 C133.52,69.1690667 133.531733,69.1029333 133.540267,69.0357333 C133.576533,68.736 133.6,68.4352 133.6,68.1333333 C133.6,64.016 130.250667,60.6666667 126.133333,60.6666667 C122.016,60.6666667 118.666667,64.016 118.666667,68.1333333 Z M137.866667,71.3333333 L137.866667,47.8666667 L134.666667,47.8666667 L86.6666667,47.8666667 L86.6666667,58.5333333 L86.6666667,67.0666667 L86.6666667,71.3333333 L117.085867,71.3333333 C117.073067,71.296 117.064533,71.2586667 117.051733,71.2213333 C116.994133,71.0528 116.941867,70.8832 116.893867,70.7104 C116.861867,70.5930667 116.832,70.4757333 116.8032,70.3573333 C116.765867,70.2005333 116.7296,70.0437333 116.699733,69.8837333 C116.670933,69.7258667 116.648533,69.5669333 116.6272,69.408 C116.610133,69.2810667 116.589867,69.1562667 116.578133,69.0272 C116.5504,68.7296 116.533333,68.432 116.533333,68.1333333 C116.533333,62.8405333 120.840533,58.5333333 126.133333,58.5333333 C131.426133,58.5333333 135.733333,62.8405333 135.733333,68.1333333 C135.733333,68.432 135.716267,68.7296 135.687467,69.0272 C135.675733,69.1552 135.655467,69.2810667 135.6384,69.408 C135.617067,69.5669333 135.595733,69.7258667 135.565867,69.8837333 C135.536,70.0437333 135.499733,70.2005333 135.4624,70.3573333 C135.434667,70.4757333 135.4048,70.5930667 135.371733,70.7104 C135.323733,70.8821333 135.271467,71.0528 135.213867,71.2213333 C135.201067,71.2586667 135.192533,71.2970667 135.179733,71.3333333 L137.866667,71.3333333 Z M115.04,60.88 C115.3088,61.0816 115.466667,61.3973333 115.466667,61.7333333 C115.466667,63.1221333 114.571733,64.2954667 113.333333,64.7370667 L113.333333,66 L111.2,66 L111.2,64.7370667 C109.9616,64.2954667 109.066667,63.1221333 109.066667,61.7333333 L111.2,61.7333333 C111.2,62.3210667 111.678933,62.8 112.266667,62.8 C112.6912,62.8 113.0592,62.5504 113.230933,62.1898667 L109.493333,59.3866667 C109.224533,59.1850667 109.066667,58.8693333 109.066667,58.5333333 C109.066667,57.1445333 109.9616,55.9712 111.2,55.5296 L111.2,54.2666667 L113.333333,54.2666667 L113.333333,55.5296 C114.571733,55.9712 115.466667,57.1445333 115.466667,58.5333333 L113.333333,58.5333333 C113.333333,57.9456 112.8544,57.4666667 112.266667,57.4666667 C111.842133,57.4666667 111.474133,57.7162667 111.3024,58.0768 L115.04,60.88 Z M127.2,67.0666667 L130.4,67.0666667 L130.4,69.2 L127.2,69.2 L127.2,72.4 L125.066667,72.4 L125.066667,69.2 L121.866667,69.2 L121.866667,67.0666667 L125.066667,67.0666667 L125.066667,63.8666667 L127.2,63.8666667 L127.2,67.0666667 Z" id="Combined-Shape" fill="url(#linearGradient-1)"></path>
                </g>
            </g>
        </g>
    </g>
</svg>