<?xml version="1.0" encoding="UTF-8"?>
<svg width="64px" height="64px" viewBox="0 0 64 64" version="1.1" xmlns="http://www.w3.org/2000/svg" xmlns:xlink="http://www.w3.org/1999/xlink">
    <!-- Generator: Sketch 52.4 (67378) - http://www.bohemiancoding.com/sketch -->
    <title>Group 10 Copy</title>
    <desc>Created with Sketch.</desc>
    <defs>
        <linearGradient x1="50%" y1="24.4700206%" x2="50%" y2="100%" id="linearGradient-1">
            <stop stop-color="#1E91D8" offset="0%"></stop>
            <stop stop-color="#0D58AF" offset="100%"></stop>
        </linearGradient>
    </defs>
    <g id="Page-1" stroke="none" stroke-width="1" fill="none" fill-rule="evenodd">
        <g id="01---Colega" transform="translate(-547.000000, -1169.000000)">
            <g id="Group-7" transform="translate(200.000000, 831.000000)">
                <g id="Group-10-Copy" transform="translate(275.000000, 320.000000)">
                    <rect id="Rectangle-Copy-2" opacity="0.111676897" fill-rule="nonzero" x="0" y="0" width="215" height="100"></rect>
                    <path d="M96.5,25.5 C97.19,25.5 97.75,26.06 97.75,26.75 C97.75,27.44 97.19,28 96.5,28 C95.81,28 95.25,27.44 95.25,26.75 C95.25,26.06 95.81,25.5 96.5,25.5 Z M104,35.5 C106.06775,35.5 107.75,37.18225 107.75,39.25 C107.75,40.879625 106.704875,42.269 105.25,42.785 L105.25,44.25 C105.25,44.940375 104.69025,45.5 104,45.5 C103.30975,45.5 102.75,44.940375 102.75,44.25 L102.75,42.791125 C101.91725,42.511875 101.1315,41.958 100.46325,41.163125 C100.019125,40.63475 100.08725,39.84625 100.61575,39.402 C101.144125,38.95775 101.93275,39.025875 102.376875,39.554375 C102.8895,40.164125 103.466,40.5 104,40.5 C104.68925,40.5 105.25,39.93925 105.25,39.25 C105.25,38.56075 104.68925,38 104,38 C101.93225,38 100.25,36.31775 100.25,34.25 C100.25,32.620375 101.295125,31.231 102.75,30.715 L102.75,29.25 C102.75,28.559625 103.30975,28 104,28 C104.69025,28 105.25,28.559625 105.25,29.25 L105.25,30.706125 C105.821375,30.895625 106.456125,31.242875 107.0905,31.85675 C107.5865,32.336875 107.5995,33.12825 107.1195,33.624375 C106.639375,34.120375 105.84825,34.1335 105.351875,33.653375 C104.91025,33.225875 104.44275,33 104,33 C103.31075,33 102.75,33.56075 102.75,34.25 C102.75,34.93925 103.31075,35.5 104,35.5 Z M131,36.25 C133.757,36.25 136,38.493 136,41.25 L136,57.92875 C136,59.59825 135.34975,61.168 134.169,62.348875 L126.3665,70.151375 C126.1335,70.38425 126,70.706375 126,71.035 L126,71.625 L127.25,71.625 C127.94025,71.625 128.5,72.184625 128.5,72.875 L128.5,80.75 C128.5,81.440375 127.94025,82 127.25,82 L109.75,82 C109.05975,82 108.5,81.440375 108.5,80.75 L108.5,72.875 C108.5,72.184625 109.05975,71.625 109.75,71.625 L111,71.625 L111,64.26875 C111,62.597625 111.6505,61.027625 112.83175,59.848 L121.214875,51.464875 C122.507125,50.17275 124.3395,49.731125 126,50.15875 L126,41.25 C126,38.493 128.243,36.25 131,36.25 Z M126,79.5 L126,74.125 L111,74.125 L111,79.5 L126,79.5 Z M133.5,57.92875 L133.5,41.25 C133.5,39.8715 132.3785,38.75 131,38.75 C129.6215,38.75 128.5,39.8715 128.5,41.25 L128.5,51.695 C129.30775,52.6085 129.75,53.77 129.75,55 C129.75,56.335875 129.229625,57.591375 128.285,58.535625 L122.074,64.7465 C121.585625,65.23475 120.794375,65.234625 120.306125,64.7465 C119.818,64.25825 119.818,63.46675 120.306125,62.978625 L126.517375,56.767375 C126.989875,56.295125 127.25,55.667625 127.25,55 C127.25,54.332375 126.989875,53.704875 126.517625,53.233 C126.490625,53.206 126.463875,53.17975 126.435375,53.155375 C126.428125,53.14925 126.421,53.142875 126.413875,53.136625 C125.428125,52.252125 123.920875,52.29425 122.982625,53.232625 L114.598875,61.616375 C113.89,62.32425 113.5,63.266 113.5,64.26875 L113.5,71.625 L123.5,71.625 L123.5,71.035 C123.5,70.04825 123.900375,69.081875 124.598625,68.383625 L132.401125,60.581125 C133.10975,59.8725 133.5,58.9305 133.5,57.92875 Z M98.25,71.625 C98.94025,71.625 99.5,72.184625 99.5,72.875 L99.5,80.75 C99.5,81.440375 98.94025,82 98.25,82 L80.75,82 C80.05975,82 79.5,81.440375 79.5,80.75 L79.5,72.875 C79.5,72.184625 80.05975,71.625 80.75,71.625 L82,71.625 L82,71.035 C82,70.70625 81.8665,70.38425 81.6335,70.15125 L73.831,62.348875 C72.65025,61.168 72,59.59825 72,57.92875 L72,41.25 C72,38.493 74.243,36.25 77,36.25 C79.757,36.25 82,38.493 82,41.25 L82,50.15875 C83.6605,49.731 85.492875,50.1725 86.78525,51.464875 L95.169,59.848625 C96.3495,61.027625 97,62.597625 97,64.26875 L97,71.625 L98.25,71.625 Z M75.598875,60.58125 L83.401375,68.383625 C84.099625,69.081875 84.5,70.04825 84.499875,71.035 L84.499875,71.625 L94.499875,71.625 L94.499875,64.268625 C94.499875,63.265875 94.109875,62.32425 93.401625,61.616875 L85.01725,53.232625 C84.079,52.294375 82.571625,52.252125 81.586,53.136625 L81.5645,53.155375 C81.536125,53.17975 81.50925,53.206 81.482,53.233125 C81.010125,53.704875 80.75,54.332375 80.75,55 C80.75,55.667625 81.010125,56.295125 81.482375,56.766875 L87.73275,63.01725 C88.220875,63.5055 88.220875,64.297 87.73275,64.785125 C87.244375,65.27325 86.453125,65.27325 85.964875,64.785125 L79.714875,58.535125 C78.770375,57.591375 78.25,56.335875 78.25,55 C78.25,53.76975 78.69225,52.608375 79.5,51.694875 L79.5,41.25 C79.5,39.8715 78.3785,38.75 77,38.75 C75.6215,38.75 74.5,39.8715 74.5,41.25 L74.5,57.92875 C74.5,58.9305 74.89025,59.8725 75.598875,60.58125 Z M97,79.5 L97,74.125 L82,74.125 L82,79.5 L97,79.5 Z M104,18 C114.33875,18 122.75,26.41125 122.75,36.75 C122.75,47.08875 114.33875,55.5 104,55.5 C93.66125,55.5 85.25,47.08875 85.25,36.75 C85.25,26.41125 93.66125,18 104,18 Z M104,53 C112.960375,53 120.25,45.71025 120.25,36.75 C120.25,27.78975 112.960375,20.5 104,20.5 C95.039625,20.5 87.75,27.78975 87.75,36.75 C87.75,45.71025 95.039625,53 104,53 Z M112.63175,26.046125 C115.8845,28.67225 117.75,32.573625 117.75,36.75 C117.75,44.33175 111.58175,50.5 104,50.5 C96.41825,50.5 90.25,44.33175 90.25,36.75 C90.25,34.485875 90.81275,32.2405 91.877375,30.256375 C92.203625,29.648125 92.9615,29.4195 93.569875,29.746 C94.178125,30.0725 94.406625,30.83025 94.08025,31.4385 C93.21,33.06025 92.75,34.897 92.75,36.75 C92.75,42.95325 97.79675,48 104,48 C110.20325,48 115.25,42.95325 115.25,36.75 C115.25,33.332875 113.72325,30.1405 111.061375,27.991125 C108.399125,25.841875 104.907125,25.033 101.481,25.77175 C100.80625,25.916875 100.141125,25.488125 99.995625,24.813375 C99.850125,24.1385 100.27925,23.4735 100.954125,23.328 C105.122125,22.429375 109.379125,23.419875 112.63175,26.046125 Z" id="Combined-Shape" fill="url(#linearGradient-1)"></path>
                </g>
            </g>
        </g>
    </g>
</svg>