<?xml version="1.0" encoding="UTF-8"?>
<svg width="64px" height="64px" viewBox="0 0 64 64" version="1.1" xmlns="http://www.w3.org/2000/svg" xmlns:xlink="http://www.w3.org/1999/xlink">
    <!-- Generator: Sketch 52.4 (67378) - http://www.bohemiancoding.com/sketch -->
    <title>Group 8</title>
    <desc>Created with Sketch.</desc>
    <defs>
        <linearGradient x1="50%" y1="24.4700206%" x2="50%" y2="100%" id="linearGradient-1">
            <stop stop-color="#1E91D8" offset="0%"></stop>
            <stop stop-color="#0D58AF" offset="100%"></stop>
        </linearGradient>
    </defs>
    <g id="Page-1" stroke="none" stroke-width="1" fill="none" fill-rule="evenodd">
        <g id="01---Colega" transform="translate(-1086.000000, -849.000000)" fill-rule="nonzero">
            <g id="Group-7" transform="translate(200.000000, 831.000000)">
                <g id="Group-8" transform="translate(811.000000, 0.000000)">
                    <rect id="Rectangle-Copy" opacity="0.111676897" x="0" y="0" width="215" height="100"></rect>
                    <path d="M138.882323,33.1682291 C139.115096,34.0026042 138.99949,34.8953125 138.562586,35.6427084 L138.029343,36.5708333 C138.532903,36.8677084 138.704228,37.5145834 138.413132,38.0213542 L135.746921,42.6401042 L136.674887,43.1734376 C137.410178,43.596875 137.947066,44.2953125 138.167861,45.1151042 C138.388657,45.9359376 138.273573,46.8109376 137.848124,47.546875 L133.582186,54.9390625 C133.441064,55.1859376 133.207771,55.3661458 132.933338,55.440625 C132.659427,55.5145834 132.366769,55.4760417 132.120977,55.3333333 C131.87102,55.1838542 131.693446,54.9385417 131.628874,54.6546876 C131.564301,54.3703125 131.61898,54.0723958 131.77989,53.8296876 L136.045828,46.4375 C136.18747,46.1921876 136.226006,45.9005209 136.15206,45.6270834 C136.078635,45.3515625 135.898457,45.1177084 135.651104,44.9760417 L134.723137,44.4427084 L125.562201,60.346875 L121.498832,65.2854168 L120.432348,67.0666667 C119.85328,68.0526043 118.792003,68.6546876 117.648969,68.6458333 C117.364642,68.6468751 117.081357,68.6109376 116.806404,68.5390625 L114.321412,71.6854168 C113.846493,72.2786459 113.092455,72.575 112.341021,72.4630209 C111.589587,72.3510417 110.954799,71.8473959 110.674118,71.1416667 L110.012772,69.4666667 L109.618048,70.1177084 C109.142608,70.9130209 108.208393,71.3109376 107.305422,71.1015625 C106.402451,70.8921876 105.738502,70.1239584 105.661432,69.2 L105.288058,64.8697917 L102.675483,72.7416667 C102.528633,73.1760417 102.12037,73.4682292 101.662115,73.4666667 C101.547551,73.4593751 101.435591,73.4302084 101.331442,73.3817709 C100.776329,73.1942709 100.47638,72.5942709 100.659682,72.0375 L103.283192,64.165625 C103.604491,63.2052084 104.556412,62.6026042 105.56197,62.7239584 C106.567007,62.8458333 107.348644,63.6572917 107.431963,64.6666666 L107.794401,68.9333333 L108.17819,68.2828125 C108.594265,67.5885417 109.36757,67.1895835 110.174724,67.2531251 C110.981357,67.3161459 111.6828,67.8307292 111.985873,68.5817709 L112.657633,70.2666667 L115.057224,67.3229168 C114.328702,66.3036459 114.262047,64.953125 114.88642,63.8666666 L115.952904,61.8723958 L118.192626,55.8880209 L127.257745,40.1760417 L126.329778,39.6427084 C125.822053,39.35 125.646041,38.7020834 125.935054,38.1921876 C126.076176,37.9453125 126.309469,37.7651042 126.583902,37.690625 C126.857813,37.6166666 127.150472,37.6552084 127.396263,37.7973958 L128.32423,38.3307292 L131.033142,33.7124999 C131.329446,33.2083333 131.976731,33.0369791 132.483415,33.328125 L133.016658,32.3999999 C133.440023,31.6645834 134.138341,31.1276042 134.957993,30.9067709 C135.778686,30.6864583 136.653537,30.8015625 137.389349,31.2270834 C138.12464,31.6505209 138.662048,32.3489583 138.882323,33.1682291 Z M134.861655,33.4666666 L134.328413,34.3947917 L136.184346,35.4614584 L136.717588,34.5333333 C136.854023,34.2864584 136.892038,33.996875 136.824341,33.7229167 C136.750395,33.4479167 136.570218,33.2135417 136.322864,33.0723958 C136.076031,32.9359375 135.786497,32.8979167 135.512586,32.965625 C135.237112,33.0390625 135.002777,33.2197917 134.861655,33.4666666 Z M120.325595,63.2484376 L123.087624,59.909375 L119.728301,57.9682292 L118.213976,62.0213542 L119.792353,62.9390625 L120.325595,63.2484376 Z M117.126141,66.3307292 C117.371412,66.5026043 117.677089,66.5630209 117.969227,66.4984376 C118.261364,66.4333333 118.512363,66.2489584 118.661817,65.9895834 L119.195059,65.0723958 L117.339646,64.0057292 L116.806404,64.9333333 C116.537179,65.4125 116.675697,66.0166667 117.126141,66.3307292 Z M124.303562,58.1604168 L132.835439,43.3760417 L129.145443,41.2427084 L120.613567,56.0270834 L124.303562,58.1604168 Z M133.901923,41.5307292 L136.034892,37.8401042 L132.344897,35.7067709 L130.211928,39.3973958 L133.901923,41.5307292 Z M91.8288977,65.7973958 C92.2522629,65.4348958 92.8828844,65.459375 93.2770879,65.8536458 C93.6707708,66.2473959 93.6952457,66.8781251 93.3328076,67.3015625 L89.5683461,71.0776043 C89.1658107,71.4770835 88.6205913,71.6994792 88.0540213,71.6963543 C87.4905758,71.6968751 86.9500432,71.4744792 86.5501114,71.0776043 L84.2890392,68.8161459 C84.0869902,68.6161459 83.973468,68.3432292 83.973468,68.0588543 C83.973468,67.7744792 84.0869902,67.5020835 84.2890392,67.3015625 C84.7051139,66.8880209 85.3768743,66.8880209 85.7929491,67.3015625 L88.0540213,69.5630209 L91.8288977,65.7973958 Z M79.2659384,68.6666667 C79.2659384,65.2328125 81.2057113,62.0932292 84.277062,60.5572917 C87.3478919,59.021875 91.023306,59.353125 93.7702329,61.4135417 C94.2415067,61.7671876 94.3368028,62.4354168 93.9832175,62.9067709 C93.6301527,63.378125 92.9615168,63.4739584 92.4902432,63.1203125 C91.292531,62.2161458 89.8318428,61.7291666 88.3310574,61.7333333 C84.5025443,61.7333333 81.3989075,64.8375 81.3989075,68.6666667 C81.3989075,72.4958333 84.5025443,75.6 88.3310574,75.6 C92.1595704,75.6 95.2632072,72.4958333 95.2632072,68.6666667 C95.2632072,68.0776043 95.7407298,67.6 96.3296918,67.6 C96.9186538,67.6 97.3961764,68.0776043 97.3961764,68.6666667 C97.3961764,73.6744792 93.3374944,77.7333333 88.3310574,77.7333333 C83.3246204,77.7333333 79.2659384,73.6744792 79.2659384,68.6666667 Z M113.393445,26.5333333 L86.7313305,26.5333333 L86.7313305,28.6666666 L113.393445,28.6666666 C113.982407,28.6666666 114.45993,29.1442709 114.45993,29.7333333 C114.45993,30.3229167 113.982407,30.7999999 113.393445,30.7999999 L85.6648459,30.7999999 C85.0758839,30.7999999 84.5983613,30.3229167 84.5983613,29.7333333 L84.5983613,25.4666666 C84.5983613,24.8776042 85.0758839,24.3999999 85.6648459,24.3999999 L113.393445,24.3999999 C113.982407,24.3999999 114.45993,24.8776042 114.45993,25.4666666 C114.45993,26.0562501 113.982407,26.5333333 113.393445,26.5333333 Z M88.8642997,32.9333333 L110.193991,32.9333333 C110.782953,32.9333333 111.260476,33.4109375 111.260476,33.9999999 C111.260476,34.5895834 110.782953,35.0666666 110.193991,35.0666666 L88.8642997,35.0666666 C88.2753377,35.0666666 87.7978151,34.5895834 87.7978151,33.9999999 C87.7978151,33.4109375 88.2753377,32.9333333 88.8642997,32.9333333 Z M116.592899,40.4 C117.181861,40.4 117.659384,40.8776042 117.659384,41.4666666 C117.659384,42.0562501 117.181861,42.5333333 116.592899,42.5333333 L93.130238,42.5333333 C92.5412761,42.5333333 92.0637534,42.0562501 92.0637534,41.4666666 C92.0637534,40.8776042 92.5412761,40.4 93.130238,40.4 L116.592899,40.4 Z M105.928053,47.8666666 C105.928053,48.4562501 105.450531,48.9333333 104.861569,48.9333333 L83.5318767,48.9333333 C82.9429147,48.9333333 82.4653921,48.4562501 82.4653921,47.8666666 C82.4653921,47.2776042 82.9429147,46.8 83.5318767,46.8 L104.861569,46.8 C105.450531,46.8 105.928053,47.2776042 105.928053,47.8666666 Z M116.592899,46.8 C117.181861,46.8 117.659384,47.2776042 117.659384,47.8666666 C117.659384,48.4562501 117.181861,48.9333333 116.592899,48.9333333 L109.127507,48.9333333 C108.538545,48.9333333 108.061022,48.4562501 108.061022,47.8666666 C108.061022,47.2776042 108.538545,46.8 109.127507,46.8 L116.592899,46.8 Z M94.1967226,54.2666666 L83.5318767,54.2666666 C82.9429147,54.2666666 82.4653921,53.7895834 82.4653921,53.2 C82.4653921,52.6109376 82.9429147,52.1333333 83.5318767,52.1333333 L94.1967226,52.1333333 C94.7856846,52.1333333 95.2632072,52.6109376 95.2632072,53.2 C95.2632072,53.7895834 94.7856846,54.2666666 94.1967226,54.2666666 Z M98.462661,54.2666666 C97.873699,54.2666666 97.3961764,53.7895834 97.3961764,53.2 C97.3961764,52.6109376 97.873699,52.1333333 98.462661,52.1333333 L105.928053,52.1333333 C106.517015,52.1333333 106.994538,52.6109376 106.994538,53.2 C106.994538,53.7895834 106.517015,54.2666666 105.928053,54.2666666 L98.462661,54.2666666 Z M122.991807,67.0666667 C123.580769,67.0666667 124.058291,67.5442709 124.058291,68.1333333 L124.058291,78.8 C124.058291,80.5677084 122.625723,82 120.858837,82 L78.1994538,82 C76.432568,82 75,80.5677084 75,78.8 L75,21.1999999 C75,19.4328125 76.432568,18 78.1994538,18 L120.858837,18 C122.625723,18 124.058291,19.4328125 124.058291,21.1999999 L124.058291,41.2322917 C124.058291,41.8213542 123.580769,42.2989584 122.991807,42.2989584 C122.402845,42.2989584 121.925322,41.8213542 121.925322,41.2322917 L121.925322,21.1999999 C121.925322,20.6109375 121.447799,20.1333333 120.858837,20.1333333 L78.1994538,20.1333333 C77.6104918,20.1333333 77.1329692,20.6109375 77.1329692,21.1999999 L77.1329692,78.8 C77.1329692,79.3895835 77.6104918,79.8666667 78.1994538,79.8666667 L120.858837,79.8666667 C121.447799,79.8666667 121.925322,79.3895835 121.925322,78.8 L121.925322,68.1333333 C121.925322,67.5442709 122.402845,67.0666667 122.991807,67.0666667 Z" id="Combined-Shape" fill="url(#linearGradient-1)"></path>
                </g>
            </g>
        </g>
    </g>
</svg>